<svg width="370" height="180" viewBox="0 0 370 180" fill="none" xmlns="http://www.w3.org/2000/svg">
<path fill-rule="evenodd" clip-rule="evenodd" d="M160 36H0V24.5123C0 22.0204 2.26417 20 5.05677 20H154.943C157.736 20 160 22.0204 160 24.5123V36Z" fill="#253368"/>
<path fill-rule="evenodd" clip-rule="evenodd" d="M154.369 161H5.63139C2.52146 161 0 158.744 0 155.962V36H160V155.962C160 158.744 157.479 161 154.369 161Z" fill="#E4EBF7"/>
<path fill-rule="evenodd" clip-rule="evenodd" d="M17 27.6665C17 29.3233 15.6568 30.6665 13.9998 30.6665C12.343 30.6665 11 29.3233 11 27.6665C11 26.0098 12.343 24.6665 13.9998 24.6665C15.6568 24.6665 17 26.0098 17 27.6665Z" fill="#FF7946"/>
<path fill-rule="evenodd" clip-rule="evenodd" d="M28.8013 27.6665C28.8013 29.3233 27.4582 30.6665 25.8012 30.6665C24.1444 30.6665 22.8013 29.3233 22.8013 27.6665C22.8013 26.0098 24.1444 24.6665 25.8012 24.6665C27.4582 24.6665 28.8013 26.0098 28.8013 27.6665Z" fill="#FAAD14"/>
<path fill-rule="evenodd" clip-rule="evenodd" d="M40.6024 27.6665C40.6024 29.3233 39.2593 30.6665 37.6023 30.6665C35.9455 30.6665 34.6024 29.3233 34.6024 27.6665C34.6024 26.0098 35.9455 24.6665 37.6023 24.6665C39.2593 24.6665 40.6024 26.0098 40.6024 27.6665Z" fill="#7CB305"/>
<path d="M149 60H11V150H149V60Z" fill="white"/>
<path d="M149 47H11V52H149V47Z" fill="white"/>
<path d="M129.373 75H29.6269C28.1761 75 27 76.3392 27 77.9913V78.0087C27 79.6608 28.1761 81 29.6269 81H129.373C130.824 81 132 79.6608 132 78.0087V77.9913C132 76.3392 130.824 75 129.373 75Z" fill="#E4EBF7"/>
<path d="M92.3536 88H29.6464C28.1848 88 27 89.3392 27 90.9913V91.0087C27 92.6608 28.1848 94 29.6464 94H92.3536C93.8152 94 95 92.6608 95 91.0087V90.9913C95 89.3392 93.8152 88 92.3536 88Z" fill="#E4EBF7"/>
<path d="M99.3731 101H29.6269C28.1761 101 27 102.339 27 103.991V104.009C27 105.661 28.1761 107 29.6269 107H99.3731C100.824 107 102 105.661 102 104.009V103.991C102 102.339 100.824 101 99.3731 101Z" fill="#E4EBF7"/>
<path d="M66.5968 118H31.4032C28.9714 118 27 119.88 27 122.198V133.802C27 136.12 28.9714 138 31.4032 138H66.5968C69.0286 138 71 136.12 71 133.802V122.198C71 119.88 69.0286 118 66.5968 118Z" fill="#597EF7"/>
<path d="M126.744 118H91.5508C89.119 118 87.1476 119.88 87.1476 122.198V133.802C87.1476 136.12 89.119 138 91.5508 138H126.744C129.176 138 131.148 136.12 131.148 133.802V122.198C131.148 119.88 129.176 118 126.744 118Z" fill="#399E65"/>
<path d="M297.93 71H173.07C170.27 71 168 73.2481 168 76.0212V132.979C168 135.752 170.27 138 173.07 138H297.93C300.73 138 303 135.752 303 132.979V76.0212C303 73.2481 300.73 71 297.93 71Z" fill="#597EF7"/>
<path fill-rule="evenodd" clip-rule="evenodd" d="M216 86C217.105 86 218 87.1563 218 88.5828V126.417C218 127.844 217.105 129 216 129C214.895 129 214 127.844 214 126.417V88.5828C214 87.1563 214.895 86 216 86Z" fill="white"/>
<path d="M284.569 86H226.97C226.031 86 225.269 86.7835 225.269 87.75V91.25C225.269 92.2165 226.031 93 226.97 93H284.569C285.508 93 286.269 92.2165 286.269 91.25V87.75C286.269 86.7835 285.508 86 284.569 86Z" fill="#2F54EB"/>
<path d="M257.311 116H226.689C225.756 116 225 116.783 225 117.75V121.25C225 122.217 225.756 123 226.689 123H257.311C258.244 123 259 122.217 259 121.25V117.75C259 116.783 258.244 116 257.311 116Z" fill="#2F54EB"/>
<path d="M284.3 101H226.7C225.761 101 225 101.784 225 102.75V106.25C225 107.216 225.761 108 226.7 108H284.3C285.239 108 286 107.216 286 106.25V102.75C286 101.784 285.239 101 284.3 101Z" fill="#2F54EB"/>
<path d="M201.5 91H180.5C178.567 91 177 92.567 177 94.5V115.5C177 117.433 178.567 119 180.5 119H201.5C203.433 119 205 117.433 205 115.5V94.5C205 92.567 203.433 91 201.5 91Z" fill="#2F54EB"/>
<g clip-path="url(#clip0)">
<path d="M183.178 109.004C183.126 109.004 183.084 109.027 183.053 109.074C183.022 109.121 183.006 109.181 183.006 109.254V109.753C183.006 109.826 183.022 109.886 183.053 109.933C183.084 109.98 183.126 110.003 183.178 110.003L185.191 110.815L186.003 112.828C186.003 112.88 186.026 112.922 186.073 112.953C186.12 112.985 186.18 113 186.253 113H186.752C186.825 113 186.885 112.985 186.932 112.953C186.979 112.922 187.002 112.88 187.002 112.828V111.049L191.435 106.631L192.996 112.501C192.996 112.636 193.046 112.753 193.145 112.852C193.243 112.951 193.36 113 193.496 113H194.495C194.64 113 194.76 112.951 194.854 112.852C194.947 112.753 194.994 112.636 194.994 112.501V103.072L197.804 100.278C198.064 100.008 198.358 99.4639 198.686 98.647C199.014 97.8301 199.081 97.3227 198.889 97.125C198.696 96.9273 198.189 96.9923 197.367 97.3201C196.545 97.6479 196.004 97.9471 195.744 98.2177L192.934 101.012H183.505C183.37 101.012 183.253 101.061 183.154 101.16C183.055 101.259 183.006 101.376 183.006 101.511V102.51C183.006 102.646 183.055 102.763 183.154 102.862C183.253 102.96 183.37 103.01 183.505 103.01L189.375 104.571L184.926 109.004H183.178Z" fill="#597EF7"/>
</g>
<path d="M286.313 122.138C285.699 122.929 285.333 123.922 285.333 125C285.333 127.577 287.423 129.667 290 129.667C291.078 129.667 292.071 129.301 292.862 128.687L286.313 122.138ZM287.138 121.313L293.687 127.862C294.301 127.071 294.667 126.078 294.667 125C294.667 122.423 292.577 120.333 290 120.333C288.922 120.333 287.929 120.699 287.138 121.313ZM284.167 125C284.167 121.778 286.778 119.167 290 119.167C293.222 119.167 295.833 121.778 295.833 125C295.833 128.222 293.222 130.833 290 130.833C286.778 130.833 284.167 128.222 284.167 125Z" fill="#86A1F8"/>
<path d="M267.93 112H143.07C140.27 112 138 114.282 138 117.096V174.904C138 177.718 140.27 180 143.07 180H267.93C270.73 180 273 177.718 273 174.904V117.096C273 114.282 270.73 112 267.93 112Z" fill="#E4EBF7"/>
<g clip-path="url(#clip1)">
<path d="M256.549 157.282C259.449 155.615 261.298 156.051 261.298 156.051L262.46 156.684C261.632 156.768 259.239 157.036 257.718 157.91C254.817 159.577 252.969 162.138 252.969 162.138V167.053C252.969 169.214 254.535 170.956 255.399 171.646C253.833 171.088 251.8 169.52 251.8 166.425V161.51C251.8 161.51 253.648 158.948 256.549 157.282Z" fill="url(#paint0_linear)"/>
<path d="M252.969 167.054V162.138C252.969 162.138 254.817 159.577 257.718 157.91C259.239 157.036 260.47 156.741 261.298 156.657C262.049 156.581 262.467 156.68 262.467 156.68V161.595C262.467 167.212 257.718 171.972 257.718 171.972C257.718 171.972 255.92 172.237 254.537 171.131C253.672 170.441 252.969 169.215 252.969 167.054Z" fill="#ECB436"/>
<path d="M253.748 166.604V162.495C253.748 162.495 255.293 160.354 257.718 158.961C258.989 158.23 260.019 157.983 260.711 157.913C261.338 157.85 261.688 157.932 261.688 157.932V162.041C261.688 166.737 257.718 170.716 257.718 170.716C257.718 170.716 256.215 170.937 255.059 170.013C254.335 169.436 253.748 168.411 253.748 166.604Z" fill="#F7F7F7"/>
<path d="M252.969 167.054C252.999 165.269 253.025 162.574 253.026 162.155C254.063 160.764 256.16 158.723 258.371 157.614C260.18 156.698 261.721 156.54 262.467 156.68C261.941 156.562 260.88 156.584 259.652 156.988C257.13 157.797 254.522 159.978 252.918 162.121C252.919 162.502 252.938 165.197 252.969 167.054Z" fill="#FFF1A4"/>
<path d="M253.576 162.177V166.705C253.576 168.585 254.15 169.899 255.284 170.618C254.305 169.872 253.81 168.614 253.81 166.867V162.34L253.576 162.177Z" fill="#B39A8C"/>
<path d="M253.81 162.34V166.867C253.81 168.614 254.305 169.872 255.284 170.618C255.494 170.779 255.726 170.915 255.98 171.028C256.724 171.359 257.481 171.391 257.865 171.38L257.952 171.377L258.039 171.28C258.433 170.838 259.207 169.916 259.964 168.697C261.377 166.424 262.094 164.207 262.094 162.107V157.581L261.987 157.576C261.945 157.574 261.903 157.573 261.86 157.572C261.633 157.57 261.391 157.584 261.138 157.617C260.445 157.707 259.329 157.98 257.952 158.771C256.55 159.577 255.417 160.609 254.714 161.333C254.43 161.625 254.162 161.921 253.917 162.213L253.81 162.34ZM254.215 162.387C254.417 162.152 254.634 161.915 254.862 161.68C255.533 160.99 256.613 160.006 257.952 159.236C259.266 158.481 260.33 158.221 260.991 158.135C261.151 158.114 261.305 158.101 261.454 158.095C261.534 158.092 261.612 158.091 261.688 158.092V162.34C261.688 164.302 261.017 166.377 259.693 168.506C259.026 169.58 258.345 170.411 257.952 170.861C257.567 170.864 256.903 170.817 256.249 170.526C256.007 170.418 255.787 170.288 255.589 170.136C254.676 169.436 254.215 168.262 254.215 166.635V162.387H254.215Z" fill="white"/>
<path d="M255.589 170.136C255.787 170.289 256.008 170.419 256.249 170.526C256.903 170.817 257.567 170.864 257.952 170.862L257.718 170.699C257.334 170.701 256.67 170.654 256.015 170.364C255.865 170.296 255.723 170.221 255.589 170.136Z" fill="#B39F8C"/>
<path d="M257.718 170.698L257.952 170.861C258.345 170.412 259.026 169.58 259.693 168.506C261.017 166.377 261.688 164.302 261.688 162.34V158.093C261.612 158.092 261.534 158.092 261.454 158.096V162.177C261.454 164.14 260.783 166.214 259.459 168.344C258.792 169.417 258.112 170.249 257.718 170.698Z" fill="url(#paint1_linear)"/>
<path d="M253.576 162.177L253.81 162.34L253.917 162.213C254.162 161.921 254.43 161.625 254.713 161.333C255.416 160.609 256.549 159.577 257.952 158.771C259.329 157.98 260.444 157.707 261.137 157.617C261.39 157.585 261.633 157.57 261.859 157.572C261.902 157.573 261.945 157.574 261.986 157.576L262.093 157.581L261.859 157.418L261.753 157.414C261.49 157.402 261.205 157.416 260.904 157.455C260.21 157.544 259.094 157.817 257.718 158.609C256.315 159.415 255.182 160.447 254.479 161.17C254.196 161.462 253.928 161.758 253.683 162.051L253.576 162.177Z" fill="#F2E7DC"/>
<path d="M257.355 166.785V164.897L257.763 164.74L257.732 167.18L256.346 167.6C256.354 167.531 256.366 167.323 256.346 167.042C256.652 167.247 257.146 166.956 257.355 166.785Z" fill="#C67A00"/>
<path fill-rule="evenodd" clip-rule="evenodd" d="M257.689 168.661L257.404 168.475V167.792L257.689 167.909V168.661Z" fill="#C67A00"/>
<path d="M258.056 159.967L257.404 160.339V160.96C257.404 160.96 256.076 161.618 255.556 162.652C255.326 163.108 255.158 163.445 255.233 164.463C255.255 164.766 255.377 165.011 255.603 165.215C255.706 165.308 255.921 165.422 255.921 165.422C255.952 165.089 255.944 164.301 255.944 164.301C255.944 164.301 256.521 162.863 256.81 162.163L258.305 160.809V160.091L258.056 159.967Z" fill="#C67A00"/>
<path fill-rule="evenodd" clip-rule="evenodd" d="M259.671 160.091C259.872 160.158 260.089 160.436 260.089 160.436L258.277 160.912L258.056 160.588C258.056 160.588 258.703 160.273 259.112 160.122C259.317 160.046 259.539 160.046 259.671 160.091Z" fill="#C67A00"/>
<path d="M259.042 165.637C258.927 165.873 258.469 166.193 258.255 166.324L258.28 166.741L259.459 166.167L259.688 164.546C259.629 164.461 259.446 164.261 259.18 164.138C259.318 164.775 259.186 165.342 259.042 165.637Z" fill="#C67A00"/>
<path d="M256.227 166.257L255.16 166.891C255.16 166.891 255.16 167.327 255.277 167.932C255.431 168.484 256.131 168.484 256.131 168.484L256.506 166.437L256.227 166.257Z" fill="#C67A00"/>
<path d="M259.066 162.037L259.363 162.164L259.493 161.559L258.899 161.336C258.899 161.336 259.047 161.52 259.066 161.669C259.089 161.851 259.066 162.037 259.066 162.037Z" fill="#C67A00"/>
<path d="M257.379 161.86V163.827C257.027 164.101 256.579 164.127 256.579 164.127L256.944 164.302L257.691 163.945V162.015L257.379 161.86Z" fill="#C67A00"/>
<path fill-rule="evenodd" clip-rule="evenodd" d="M258.305 161.801V163.569C258.801 163.32 259.174 163.134 259.485 163.041C259.795 162.948 260.044 162.979 260.23 163.134C260.416 163.289 260.509 163.631 260.509 164.159C260.509 164.687 260.447 165.153 260.292 165.525C260.168 165.898 259.95 166.24 259.671 166.55C259.391 166.861 258.988 167.14 258.491 167.451L258.305 167.575V168.289L257.683 168.662V167.947C257.342 168.134 257.062 168.289 256.783 168.382C256.534 168.475 256.286 168.507 256.1 168.475C255.913 168.444 255.758 168.32 255.665 168.134C255.572 167.948 255.51 167.637 255.51 167.264V167.016L256.503 166.426C256.503 166.705 256.534 166.923 256.565 167.078C256.597 167.202 256.659 167.295 256.752 167.295C256.845 167.326 256.938 167.295 257.062 167.264C257.187 167.202 257.373 167.109 257.683 166.954V164.966C257.28 165.153 257 165.308 256.752 165.401C256.534 165.494 256.317 165.525 256.131 165.494C255.944 165.463 255.789 165.37 255.696 165.184C255.603 164.997 255.541 164.687 255.541 164.283C255.541 163.755 255.634 163.32 255.82 162.948C256.006 162.575 256.224 162.233 256.534 161.985C256.845 161.706 257.218 161.457 257.683 161.178V160.557L258.305 160.184V160.805C258.801 160.525 259.205 160.37 259.485 160.308C259.764 160.246 259.981 160.308 260.137 160.494C260.292 160.681 260.354 161.053 260.354 161.612L259.36 162.171C259.36 162.14 259.36 162.109 259.36 162.047C259.36 161.706 259.298 161.55 259.174 161.488C258.888 161.417 258.552 161.675 258.305 161.801ZM258.305 164.563V166.55L258.491 166.426C258.832 166.24 259.081 166.022 259.236 165.774C259.391 165.556 259.485 165.246 259.485 164.873C259.485 164.563 259.454 164.376 259.36 164.314C259.267 164.221 259.143 164.221 259.019 164.252C258.832 164.314 258.615 164.407 258.305 164.563ZM257.652 162.109C257.417 162.251 257.165 162.379 256.969 162.575C256.659 162.808 256.534 163.226 256.534 163.6C256.534 163.973 256.628 164.159 256.814 164.19C257 164.221 257.28 164.128 257.652 163.91V162.109Z" fill="#FAC13C"/>
<path fill-rule="evenodd" clip-rule="evenodd" d="M255.781 161.131L254.312 160.261L253.588 160.695H253.564H253.54H253.516L255.022 161.59L255.781 161.131Z" fill="#039460"/>
<path fill-rule="evenodd" clip-rule="evenodd" d="M252.189 161.467L252.117 161.539L253.588 162.383L253.655 162.327L253.661 162.239V159.971L253.757 159.658L252.286 158.79C252.286 158.79 252.231 158.871 252.211 158.929C252.186 159.003 252.189 159.127 252.189 159.127V161.467Z" fill="#039460"/>
<path fill-rule="evenodd" clip-rule="evenodd" d="M253.588 162.383L252.117 161.539L251.369 161.973L252.841 162.818L253.588 162.383Z" fill="#00AF68"/>
<path d="M253.395 158.162C253.941 158.456 254.901 159.036 254.901 159.036L253.878 159.513L253.757 159.658L252.286 158.79C252.388 158.673 252.979 158.25 253.275 158.138C253.275 158.138 253.311 158.117 253.395 158.162Z" fill="#00AF68"/>
<path fill-rule="evenodd" clip-rule="evenodd" d="M252.841 162.818L251.369 161.973L252.841 163.638L254.312 164.506L252.841 162.818Z" fill="#039460"/>
<path fill-rule="evenodd" clip-rule="evenodd" d="M253.661 159.971V162.239C253.661 162.287 253.612 162.359 253.588 162.383L252.841 162.818L254.312 164.506L255.783 161.129L255.06 161.563C255.011 161.587 254.987 161.563 254.987 161.515V159.248C254.987 159.151 254.939 159.055 254.891 159.031C254.818 159.007 254.746 159.007 254.65 159.055L253.998 159.417C253.902 159.465 253.83 159.561 253.757 159.658C253.709 159.754 253.661 159.875 253.661 159.971Z" fill="#00CC83"/>
<path fill-rule="evenodd" clip-rule="evenodd" d="M263.494 168.625L262.025 167.755L261.301 168.189H261.277H261.253H261.229L262.735 169.085L263.494 168.625Z" fill="#039460"/>
<path fill-rule="evenodd" clip-rule="evenodd" d="M259.902 168.961L259.83 169.033L261.301 169.877L261.368 169.821L261.373 169.733V167.466L261.47 167.152L259.999 166.284C259.999 166.284 259.943 166.365 259.924 166.423C259.899 166.497 259.902 166.621 259.902 166.621V168.961Z" fill="#039460"/>
<path fill-rule="evenodd" clip-rule="evenodd" d="M261.301 169.878L259.83 169.033L259.082 169.468L260.553 170.312L261.301 169.878Z" fill="#00AF68"/>
<path d="M261.108 165.657C261.653 165.95 262.613 166.53 262.613 166.53L261.59 167.007L261.47 167.152L259.999 166.284C260.101 166.167 260.691 165.745 260.987 165.633C260.987 165.633 261.023 165.611 261.108 165.657Z" fill="#00AF68"/>
<path fill-rule="evenodd" clip-rule="evenodd" d="M260.553 170.312L259.082 169.468L260.553 171.132L262.025 172L260.553 170.312Z" fill="#039460"/>
<path fill-rule="evenodd" clip-rule="evenodd" d="M261.373 167.466V169.733C261.373 169.781 261.325 169.853 261.301 169.877L260.553 170.312L262.025 172L263.496 168.623L262.772 169.057C262.724 169.082 262.7 169.057 262.7 169.009V166.742C262.7 166.645 262.652 166.549 262.604 166.525C262.531 166.501 262.459 166.501 262.362 166.549L261.711 166.911C261.615 166.959 261.542 167.055 261.47 167.152C261.422 167.248 261.373 167.369 261.373 167.466Z" fill="#00CC83"/>
<path fill-rule="evenodd" clip-rule="evenodd" d="M263.627 158.672L262.626 158.078L262.132 158.374H262.116H262.099H262.083L263.11 158.985L263.627 158.672Z" fill="#039460"/>
<path fill-rule="evenodd" clip-rule="evenodd" d="M261.179 158.9L261.129 158.949L262.132 159.525L262.177 159.486L262.181 159.426V157.881L262.247 157.667L261.244 157.075C261.244 157.075 261.207 157.131 261.193 157.171C261.177 157.221 261.179 157.306 261.179 157.306V158.9Z" fill="#039460"/>
<path fill-rule="evenodd" clip-rule="evenodd" d="M262.132 159.525L261.13 158.95L260.62 159.246L261.623 159.821L262.132 159.525Z" fill="#00AF68"/>
<path d="M262.001 156.648C262.372 156.848 263.027 157.244 263.027 157.244L262.33 157.569L262.247 157.667L261.245 157.076C261.315 156.996 261.717 156.708 261.919 156.632C261.919 156.632 261.943 156.617 262.001 156.648Z" fill="#00AF68"/>
<path fill-rule="evenodd" clip-rule="evenodd" d="M261.623 159.821L260.62 159.246L261.623 160.38L262.626 160.972L261.623 159.821Z" fill="#039460"/>
<path fill-rule="evenodd" clip-rule="evenodd" d="M262.182 157.881V159.426C262.182 159.459 262.149 159.508 262.132 159.525L261.623 159.821L262.626 160.971L263.628 158.67L263.135 158.966C263.102 158.982 263.086 158.966 263.086 158.933V157.388C263.086 157.322 263.053 157.256 263.02 157.24C262.971 157.224 262.922 157.224 262.856 157.256L262.412 157.503C262.346 157.536 262.297 157.602 262.248 157.667C262.215 157.733 262.182 157.815 262.182 157.881Z" fill="#00CC83"/>
</g>
<path d="M251.3 128H193.7C192.761 128 192 128.784 192 129.75V133.25C192 134.216 192.761 135 193.7 135H251.3C252.239 135 253 134.216 253 133.25V129.75C253 128.784 252.239 128 251.3 128Z" fill="#597EF7"/>
<path d="M224.311 158H193.689C192.756 158 192 158.783 192 159.75V163.25C192 164.217 192.756 165 193.689 165H224.311C225.244 165 226 164.217 226 163.25V159.75C226 158.783 225.244 158 224.311 158Z" fill="#597EF7"/>
<path d="M251.3 143H193.7C192.761 143 192 143.784 192 144.75V148.25C192 149.216 192.761 150 193.7 150H251.3C252.239 150 253 149.216 253 148.25V144.75C253 143.784 252.239 143 251.3 143Z" fill="#597EF7"/>
<path d="M170.5 132H149.5C147.567 132 146 133.567 146 135.5V156.5C146 158.433 147.567 160 149.5 160H170.5C172.433 160 174 158.433 174 156.5V135.5C174 133.567 172.433 132 170.5 132Z" fill="#597EF7"/>
<path fill-rule="evenodd" clip-rule="evenodd" d="M183 128C184.105 128 185 128.995 185 130.222V162.778C185 164.005 184.105 165 183 165C181.895 165 181 164.005 181 162.778V130.222C181 128.995 181.895 128 183 128Z" fill="white"/>
<g clip-path="url(#clip2)">
<path d="M152.178 150.004C152.126 150.004 152.084 150.027 152.053 150.074C152.022 150.121 152.006 150.181 152.006 150.254V150.753C152.006 150.826 152.022 150.886 152.053 150.933C152.084 150.98 152.126 151.003 152.178 151.003L154.191 151.815L155.003 153.828C155.003 153.88 155.026 153.922 155.073 153.953C155.12 153.985 155.18 154 155.253 154H155.752C155.825 154 155.885 153.985 155.932 153.953C155.979 153.922 156.002 153.88 156.002 153.828V152.049L160.435 147.631L161.996 153.501C161.996 153.636 162.046 153.753 162.145 153.852C162.243 153.951 162.36 154 162.496 154H163.495C163.64 154 163.76 153.951 163.854 153.852C163.947 153.753 163.994 153.636 163.994 153.501V144.072L166.804 141.278C167.064 141.008 167.358 140.464 167.686 139.647C168.014 138.83 168.081 138.323 167.889 138.125C167.696 137.927 167.189 137.992 166.367 138.32C165.545 138.648 165.004 138.947 164.744 139.218L161.934 142.012H152.505C152.37 142.012 152.253 142.061 152.154 142.16C152.055 142.259 152.006 142.376 152.006 142.511V143.51C152.006 143.646 152.055 143.763 152.154 143.862C152.253 143.96 152.37 144.01 152.505 144.01L158.375 145.571L153.926 150.004H152.178Z" fill="#E4EBF7"/>
</g>
<path fill-rule="evenodd" clip-rule="evenodd" d="M354.725 46.454L351.643 49.4295C351.255 49.8047 350.609 49.7722 350.209 49.3574L346.993 46.0274C346.592 45.6126 346.582 44.9663 346.971 44.5912L350.052 41.6156C350.441 41.2405 351.086 41.2729 351.487 41.6877L354.703 45.0177C355.103 45.4325 355.113 46.0788 354.725 46.454Z" fill="#FAAD14"/>
<path fill-rule="evenodd" clip-rule="evenodd" d="M358.521 26.8383L358.596 31.1212C358.605 31.6611 358.141 32.1111 357.565 32.1211L352.936 32.2019C352.36 32.212 351.88 31.7785 351.871 31.2385L351.796 26.9557C351.787 26.4158 352.251 25.9657 352.827 25.9557L357.456 25.8749C358.032 25.8648 358.512 26.2984 358.521 26.8383Z" fill="#FAAD14"/>
<path fill-rule="evenodd" clip-rule="evenodd" d="M347.46 8.71812L351.17 10.8599C351.637 11.1299 351.784 11.7594 351.496 12.2588L349.181 16.2678C348.893 16.7672 348.274 16.9549 347.807 16.6849L344.097 14.5431C343.629 14.2731 343.483 13.6436 343.771 13.1442L346.085 9.13515C346.374 8.6358 346.992 8.44811 347.46 8.71812Z" fill="#FAAD14"/>
<path fill-rule="evenodd" clip-rule="evenodd" d="M330.496 4.5146L334.774 4.73879C335.313 4.76705 335.729 5.26136 335.699 5.83716L335.457 10.46C335.427 11.0359 334.961 11.484 334.422 11.4557L330.144 11.2315C329.605 11.2033 329.188 10.7089 329.218 10.1331L329.46 5.51021C329.491 4.93441 329.957 4.48634 330.496 4.5146Z" fill="#FAAD14"/>
<path fill-rule="evenodd" clip-rule="evenodd" d="M311.855 13.0284L315.137 10.275C315.55 9.92786 316.192 10.0053 316.563 10.447L319.538 13.9932C319.909 14.4349 319.874 15.0804 319.46 15.4275L316.179 18.1809C315.765 18.528 315.123 18.4506 314.753 18.0088L311.777 14.4626C311.406 14.0209 311.442 13.3755 311.855 13.0284Z" fill="#FAAD14"/>
<path fill-rule="evenodd" clip-rule="evenodd" d="M303.562 31.9449L304.306 27.7264C304.4 27.1946 304.941 26.8414 305.509 26.9416L310.068 27.7454C310.636 27.8456 311.024 28.3626 310.93 28.8944L310.186 33.1128C310.093 33.6446 309.551 33.9978 308.983 33.8977L304.424 33.0939C303.857 32.9937 303.469 32.4767 303.562 31.9449Z" fill="#FAAD14"/>
<path d="M345.928 34.7737C345.928 26.4966 339.227 19.7163 330.96 19.7163C322.693 19.7163 315.991 26.4966 315.991 34.7737C315.991 38.0497 317.728 42.2811 320.517 45.4009C323.282 48.4923 324.07 53.6966 324.07 57.8466L324.07 59.4737L337.85 59.4737L337.85 57.8602C337.85 53.7102 338.637 48.5157 341.389 45.4145C344.187 42.2626 345.928 37.6552 345.928 34.7737Z" fill="#FFE58F"/>
<path d="M343.464 34.7329C343.464 27.8194 337.868 22.1545 330.96 22.1545C324.052 22.1545 318.457 27.8187 318.457 34.7329C318.457 37.4718 319.907 41.0052 322.237 43.6113C324.547 46.1941 326.262 50.5416 326.262 54.0083L326.262 55.3663L335.658 55.3663L335.658 54.02C335.658 50.5527 337.373 46.2132 339.672 43.6225C342.01 40.9897 343.464 37.141 343.464 34.7336L343.464 34.7329Z" fill="#FAAD14"/>
<path d="M334.759 67.0663L327.161 67.0663C326.895 67.0663 326.653 66.8935 326.509 66.6095L325.475 63.9312L336.446 63.9312L335.412 66.6095C335.267 66.8935 335.026 67.0663 334.76 67.0663L334.759 67.0663Z" fill="#393D65"/>
<path d="M336.604 53.2834L325.316 53.2834C324.477 53.2834 323.797 53.9636 323.797 54.8025L323.797 63.565C323.797 64.404 324.477 65.0841 325.316 65.0841L336.604 65.0841C337.443 65.0841 338.123 64.404 338.123 63.565L338.123 54.8025C338.123 53.9636 337.443 53.2834 336.604 53.2834Z" fill="#597EF7"/>
<path fill-rule="evenodd" clip-rule="evenodd" d="M323.635 56.7476C323.635 56.6477 323.716 56.5667 323.816 56.5667L331.886 56.5667C331.986 56.5667 332.067 56.6477 332.067 56.7476C332.067 56.8475 331.986 56.9285 331.886 56.9285L323.816 56.9285C323.716 56.9285 323.635 56.8475 323.635 56.7476Z" fill="white"/>
<path fill-rule="evenodd" clip-rule="evenodd" d="M323.635 61.9942C323.635 61.8942 323.716 61.8132 323.816 61.8132L331.886 61.8132C331.986 61.8132 332.067 61.8942 332.067 61.9942C332.067 62.0941 331.986 62.1751 331.886 62.1751L323.816 62.1751C323.716 62.1751 323.635 62.0941 323.635 61.9942Z" fill="white"/>
<path fill-rule="evenodd" clip-rule="evenodd" d="M329.825 59.3706C329.825 59.2707 329.906 59.1897 330.006 59.1897L338.077 59.1897C338.176 59.1897 338.257 59.2707 338.257 59.3706C338.257 59.4706 338.176 59.5516 338.077 59.5516L330.006 59.5516C329.906 59.5516 329.825 59.4706 329.825 59.3706Z" fill="white"/>
<path d="M331.981 28.722L326.339 37.3301C326.035 37.7968 326.361 38.3706 326.908 38.3706L329.436 38.3706L326.328 44.2499C326.097 44.7253 326.694 45.1663 327.06 44.7904L335.512 36.2865C335.943 35.8439 335.637 35.0879 335.027 35.0879L331.205 35.0879L332.804 29.0974C332.929 28.5861 332.265 28.2861 331.981 28.722Z" fill="white"/>
<defs>
<linearGradient id="paint0_linear" x1="257.13" y1="156" x2="257.13" y2="171.646" gradientUnits="userSpaceOnUse">
<stop stop-color="#FAC13C"/>
<stop offset="1" stop-color="#C67A00"/>
</linearGradient>
<linearGradient id="paint1_linear" x1="259.703" y1="170.861" x2="259.703" y2="158.092" gradientUnits="userSpaceOnUse">
<stop stop-color="#F2E4DC"/>
<stop offset="1" stop-color="#B3938C"/>
</linearGradient>
<clipPath id="clip0">
<rect width="16" height="16" fill="white" transform="matrix(-1 0 0 1 199 97)"/>
</clipPath>
<clipPath id="clip1">
<rect width="16" height="16" fill="white" transform="translate(249 156)"/>
</clipPath>
<clipPath id="clip2">
<rect width="16" height="16" fill="white" transform="matrix(-1 0 0 1 168 138)"/>
</clipPath>
</defs>
</svg>
