<svg width="507" height="280" viewBox="0 0 507 280" fill="none" xmlns="http://www.w3.org/2000/svg">
<path opacity="0.07" d="M301.91 187.959C163.698 10.132 263.67 -54.0834 301.951 50.0983C340.232 -9.95317 440.203 169.63 301.91 187.959Z" fill="url(#paint0_linear)"/>
<path opacity="0.4" d="M288.836 204.289C150.625 26.4614 250.596 -37.754 288.877 66.4277C327.158 6.37624 427.13 185.959 288.836 204.289Z" fill="url(#paint1_linear)"/>
<path opacity="0.2" d="M155.711 113.234C158.162 114.622 160.123 118.051 160.123 120.868V133.319L168.376 138.055C170.827 139.443 172.788 142.872 172.788 145.689C172.788 148.506 170.827 149.649 168.376 148.261L160.123 143.525V155.976C160.123 158.793 158.162 159.936 155.711 158.548C153.26 157.16 151.299 153.731 151.299 150.914V138.463L143.046 133.728C140.595 132.34 138.634 128.91 138.634 126.094C138.634 123.277 140.595 122.134 143.046 123.522L151.299 128.257V115.806C151.299 112.948 153.26 111.805 155.711 113.234Z" fill="url(#paint2_linear)"/>
<path opacity="0.25" d="M189.375 100.212L265.733 144.26V285.632L189.375 241.543V100.212Z" fill="url(#paint3_linear)"/>
<path opacity="0.15" d="M196.892 184.104L258.215 219.457V225.009L196.892 189.656V184.104Z" fill="white"/>
<path opacity="0.15" d="M201.182 197.29L253.925 227.703V233.256L201.182 202.842V197.29Z" fill="white"/>
<path d="M223.448 223.948L170.337 193.289V209.088L223.448 239.747V223.948Z" fill="#F2C94C"/>
<path d="M236.236 155.772C236.236 162.631 232.273 165.856 227.37 162.998C222.468 160.141 218.505 152.302 218.505 145.444C218.505 138.586 222.468 135.361 227.37 138.218C232.273 141.076 236.236 148.914 236.236 155.772Z" fill="#F2C94C"/>
<path d="M227.37 168.509C219.485 163.896 212.989 168.224 211.805 178.144C211.6 179.858 212.908 182.144 214.501 183.043L240.199 198.066C241.792 199.005 243.099 198.229 242.895 196.31C241.792 185.002 235.255 173.082 227.37 168.509Z" fill="#F2C94C"/>
<path opacity="0.25" d="M406.354 224.683L284.73 154.548V217.865L406.354 288V224.683Z" fill="url(#paint4_linear)"/>
<path opacity="0.15" d="M324.236 199.821L359.249 220.029V225.581L324.236 205.373V199.821Z" fill="white"/>
<path opacity="0.15" d="M324.236 210.476L395.691 251.667V257.219L324.236 216.028V210.476Z" fill="white"/>
<path d="M420 244.441L366.889 213.783V229.582L420 260.24V244.441Z" fill="#F2C94C"/>
<path opacity="0.25" d="M237.624 73.6354L116 3.50055V66.8179L237.624 136.953V73.6354Z" fill="url(#paint5_linear)"/>
<path opacity="0.15" d="M155.548 49.2638L215.318 83.7597V89.3117L155.548 54.8158V49.2638Z" fill="white"/>
<path opacity="0.15" d="M155.548 59.9186L227.003 101.11V106.662L155.548 65.4706V59.9186Z" fill="white"/>
<path d="M307.624 187.674C307.624 186.98 307.134 186.164 306.562 185.837L301.864 183.143C301.292 182.816 300.801 183.061 300.801 183.755V188.409C300.801 189.348 299.78 189.96 298.963 189.471L296.062 187.797C295.49 187.47 295 187.715 295 188.409V195.39C295 196.084 295.49 196.9 296.062 197.227L300.189 199.595C300.556 199.799 300.801 200.207 300.801 200.656V206.739C300.801 207.433 301.292 208.249 301.864 208.576L306.562 211.27C307.134 211.597 307.624 211.352 307.624 210.658V206.004C307.624 205.065 308.645 204.453 309.463 204.943L312.363 206.617C312.935 206.943 313.425 206.698 313.425 206.004V199.023C313.425 198.329 312.935 197.513 312.363 197.186L308.237 194.818C307.869 194.614 307.624 194.206 307.624 193.757V187.674Z" fill="#F77B0D"/>
<g clip-path="url(#clip0)">
<path d="M124.078 44.8718L122.072 46.0235L129.19 53.7757L132.297 63.8336L134.303 62.682L133.242 56.1864L137.942 53.4881L143.218 69.404L145.118 68.3134L143.275 50.4282L147.287 48.1233C147.558 47.9786 147.773 47.7406 147.92 47.4233C148.067 47.1059 148.142 46.7156 148.142 46.2749C148.142 45.8343 148.066 45.3523 147.918 44.857C147.771 44.3616 147.555 43.8629 147.283 43.3899C147.012 42.9169 146.69 42.4791 146.337 42.1021C145.983 41.725 145.605 41.4163 145.225 41.1938C144.845 40.9714 144.469 40.8397 144.121 40.8065C143.773 40.7732 143.459 40.8391 143.198 41.0002L139.079 43.3646L124.563 32.7533L122.769 33.7852L133.768 46.4156L129.153 49.065L124.078 44.8718V44.8718Z" fill="#F77B0D"/>
</g>
<path opacity="0.07" d="M82.9185 98.3178C82.9185 99.2165 82.8986 100.115 82.8388 100.954C91.4056 107.485 98 121.484 98 133.806C98 147.227 90.1704 153.558 80.5078 147.966C80.4879 147.946 80.468 147.946 80.4481 147.926L19.7434 112.837C19.7235 112.817 19.7036 112.817 19.6638 112.797C8.80586 106.506 0 89.191 0 74.1129C0 59.9934 7.73003 52.8238 17.6316 57.1575C18.8469 47.4716 25.3218 43.2976 33.1315 47.8311C36.877 50.0079 40.3236 53.8224 43.0132 58.4157C46.9181 52.6041 53.5723 51.1263 61.1031 55.48C73.1563 62.4299 82.9185 81.622 82.9185 98.3178Z" fill="url(#paint6_linear)"/>
<path opacity="0.4" d="M490.533 193.348C490.533 194.333 490.512 195.319 490.446 196.238C499.8 203.396 507 218.742 507 232.249C507 246.96 498.451 253.9 487.901 247.77C487.88 247.748 487.858 247.748 487.836 247.726L421.557 209.263C421.535 209.241 421.513 209.241 421.47 209.22C409.615 202.324 400 183.344 400 166.816C400 151.339 408.44 143.48 419.251 148.23C420.578 137.613 427.647 133.038 436.174 138.007C440.264 140.393 444.027 144.575 446.963 149.61C451.227 143.239 458.492 141.619 466.715 146.391C479.875 154.01 490.533 175.047 490.533 193.348Z" fill="url(#paint7_linear)"/>
<defs>
<linearGradient id="paint0_linear" x1="369.425" y1="46.4384" x2="251.379" y2="112.571" gradientUnits="userSpaceOnUse">
<stop stop-color="white"/>
<stop offset="1" stop-color="white" stop-opacity="0"/>
</linearGradient>
<linearGradient id="paint1_linear" x1="356.351" y1="62.7681" x2="238.305" y2="128.901" gradientUnits="userSpaceOnUse">
<stop stop-color="white"/>
<stop offset="1" stop-color="white" stop-opacity="0"/>
</linearGradient>
<linearGradient id="paint2_linear" x1="164.257" y1="129.136" x2="142.879" y2="146.02" gradientUnits="userSpaceOnUse">
<stop stop-color="white"/>
<stop offset="1" stop-color="white" stop-opacity="0"/>
</linearGradient>
<linearGradient id="paint3_linear" x1="273.896" y1="112.637" x2="206.192" y2="230.025" gradientUnits="userSpaceOnUse">
<stop stop-color="white"/>
<stop offset="1" stop-color="white" stop-opacity="0"/>
</linearGradient>
<linearGradient id="paint4_linear" x1="345.435" y1="167.751" x2="345.614" y2="273.08" gradientUnits="userSpaceOnUse">
<stop stop-color="white"/>
<stop offset="1" stop-color="white" stop-opacity="0"/>
</linearGradient>
<linearGradient id="paint5_linear" x1="176.707" y1="16.7035" x2="176.886" y2="122.033" gradientUnits="userSpaceOnUse">
<stop stop-color="white"/>
<stop offset="1" stop-color="white" stop-opacity="0"/>
</linearGradient>
<linearGradient id="paint6_linear" x1="94.436" y1="60.18" x2="32.6482" y2="118.645" gradientUnits="userSpaceOnUse">
<stop stop-color="white"/>
<stop offset="1" stop-color="white" stop-opacity="0"/>
</linearGradient>
<linearGradient id="paint7_linear" x1="503.106" y1="151.544" x2="435.393" y2="215.364" gradientUnits="userSpaceOnUse">
<stop stop-color="white"/>
<stop offset="1" stop-color="white" stop-opacity="0"/>
</linearGradient>
<clipPath id="clip0">
<rect width="40" height="40" fill="white" transform="matrix(0.859406 0.511293 0.00820296 0.999966 119 19)"/>
</clipPath>
</defs>
</svg>
