<svg width="436" height="250" viewBox="0 0 436 250" fill="none" xmlns="http://www.w3.org/2000/svg">
<path opacity="0.4" d="M38.9402 249.882C38.9402 249.882 -13.0304 194.159 30.1511 133.83C68.4649 80.303 113.134 83.962 145.909 105.684C159.867 114.935 200.112 106.824 234.364 52.3577C281.076 -21.9193 442.995 23.1299 413.473 137.407C399.185 192.709 456.954 194.72 427.517 250L38.9402 249.882Z" fill="#ECEFF4"/>
<path d="M391 101V103H394L387 127L380 127L387 214H431.941C434.147 214 435.937 215.786 435.941 217.993L435.993 245.993C435.997 248.205 434.205 250 431.993 250H128C125.791 250 124 248.209 124 246V236C124 233.791 125.791 232 128 232H209C211.209 232 213 230.209 213 228V216C213 213.791 214.791 212 217 212H296V136.5H344V214H356L363 127H356.667L349.5 103H352V101H370V69H373V101H391Z" fill="#E0E3EB"/>
<path d="M338 196.067H302V182H338V196.067ZM338 178H302V164H338V178ZM338 160H302V146H338V160Z" fill="#F5F7F9"/>
<path d="M402.051 48.2396L408.075 46.6585C412.975 45.3718 414 48.6231 414 48.6231L403.071 51.4794L397.968 59.4124L395.39 60L397.014 53.0624L387.767 55.4791L387.765 55.4768L384 50.9375C384 50.9375 384.717 50.6659 385.786 50.7836C386.856 50.9012 388.201 51.8749 388.201 51.8749L396.215 49.7715L391.259 44.7065L393.896 44L402.051 48.2396Z" fill="#E0E3EB"/>
<path fill-rule="evenodd" clip-rule="evenodd" d="M286 77C294.837 77 302 69.6127 302 60.5C302 51.3873 294.837 44 286 44C277.163 44 270 51.3873 270 60.5C270 69.6127 277.163 77 286 77Z" fill="#E8EBEF"/>
<path fill-rule="evenodd" clip-rule="evenodd" d="M290.108 86.3092C289.746 85.5533 290.393 84.6505 290.608 84.3695C292.058 82.476 293.972 81.3337 296.351 80.9426C300.449 80.2689 304.021 83.4698 304.897 82.9851C305.774 82.5003 306.203 79.1717 310.63 77.0344C315.056 74.8971 320.494 78.4551 321.798 78.2056C323.102 77.9562 328.125 73.2074 333.951 74.1152C339.776 75.023 342.772 79.0516 344.161 80.8672C345.55 82.6827 346.31 85.0436 345.88 85.9871C345.594 86.6161 344.982 86.9517 344.046 86.9939H291.566C290.836 87.0413 290.35 86.8131 290.108 86.3092Z" fill="#E8EBEF"/>
<path fill-rule="evenodd" clip-rule="evenodd" d="M272.94 56.3408C273.174 55.7016 272.658 54.8465 272.453 54.6002C271.071 52.9405 269.246 51.9393 266.978 51.5965C263.071 51.0059 259.666 53.8116 258.83 53.3867C257.995 52.9618 260.538 48.0223 253.91 45.5337C247.282 43.0451 236.75 50.0587 235.668 50.2071C234.586 50.3555 235.4 45.8733 227.696 46.3911C220.164 46.8974 215.118 53.0706 214.449 54.1261L214.411 54.191C213.932 55.0582 213.852 55.6125 214.276 56.2849C214.558 56.7332 215.137 56.9715 216.011 57H271.664C272.359 56.9867 272.784 56.767 272.94 56.3408Z" fill="#E8EBEF"/>
<path fill-rule="evenodd" clip-rule="evenodd" d="M158.94 195.341C159.174 194.702 158.658 193.847 158.453 193.6C157.071 191.94 155.246 190.939 152.978 190.596C149.071 190.006 145.666 192.812 144.83 192.387C143.995 191.962 146.538 187.022 139.91 184.534C133.282 182.045 122.75 189.059 121.668 189.207C120.586 189.356 121.4 184.873 113.696 185.391C106.164 185.897 101.118 192.071 100.449 193.126L100.411 193.191C99.9319 194.058 99.852 194.613 100.276 195.285C100.558 195.733 101.137 195.972 102.011 196H157.664C158.359 195.987 158.784 195.767 158.94 195.341Z" fill="#E8EBEF"/>
<path d="M188.977 50.3293L29.1771 104.582C25.9578 105.675 24.235 109.164 25.3292 112.375L46.1945 173.609C47.3481 176.995 51.0348 178.805 54.4287 177.653L213.596 123.615C216.99 122.463 218.807 118.785 217.653 115.399L196.788 54.1646C195.693 50.9534 192.197 49.2362 188.977 50.3293Z" fill="#CED3DE"/>
<path d="M223.087 77H55.0624C51.4796 77 48.575 79.9252 48.575 83.5337V148.466C48.575 152.075 51.4796 155 55.0624 155H223.087C226.67 155 229.575 152.075 229.575 148.466V83.5337C229.575 79.9252 226.67 77 223.087 77Z" fill="white"/>
<path d="M223.421 77H54.7285C51.33 77 48.575 79.6814 48.575 82.989V94H229.575V82.989C229.575 79.6814 226.82 77 223.421 77Z" fill="#2680EB"/>
<g clip-path="url(#clip0)">
<path d="M110.075 106C109.799 106 109.575 106.174 109.575 106.388V107.612C109.575 107.826 109.799 108 110.075 108C110.351 108 110.575 107.826 110.575 107.612V106.388C110.575 106.174 110.351 106 110.075 106Z" fill="#D5D6DB"/>
<path d="M110.075 109C109.799 109 109.575 109.174 109.575 109.388V110.612C109.575 110.826 109.799 111 110.075 111C110.351 111 110.575 110.826 110.575 110.612V109.388C110.575 109.174 110.351 109 110.075 109Z" fill="#D5D6DB"/>
<path d="M110.075 112C109.799 112 109.575 112.174 109.575 112.388V113.612C109.575 113.826 109.799 114 110.075 114C110.351 114 110.575 113.826 110.575 113.612V112.388C110.575 112.174 110.351 112 110.075 112Z" fill="#D5D6DB"/>
<path d="M110.075 115C109.799 115 109.575 115.174 109.575 115.388V116.612C109.575 116.826 109.799 117 110.075 117C110.351 117 110.575 116.826 110.575 116.612V115.388C110.575 115.174 110.351 115 110.075 115Z" fill="#D5D6DB"/>
<path d="M110.075 118C109.799 118 109.575 118.174 109.575 118.388V119.612C109.575 119.826 109.799 120 110.075 120C110.351 120 110.575 119.826 110.575 119.612V118.388C110.575 118.174 110.351 118 110.075 118Z" fill="#D5D6DB"/>
<path d="M110.075 121C109.799 121 109.575 121.174 109.575 121.388V122.612C109.575 122.826 109.799 123 110.075 123C110.351 123 110.575 122.826 110.575 122.612V121.388C110.575 121.174 110.351 121 110.075 121Z" fill="#D5D6DB"/>
<path d="M110.075 124C109.799 124 109.575 124.174 109.575 124.388V125.612C109.575 125.826 109.799 126 110.075 126C110.351 126 110.575 125.826 110.575 125.612V124.388C110.575 124.174 110.351 124 110.075 124Z" fill="#D5D6DB"/>
<path d="M110.075 127C109.799 127 109.575 127.174 109.575 127.388V128.612C109.575 128.826 109.799 129 110.075 129C110.351 129 110.575 128.826 110.575 128.612V127.388C110.575 127.174 110.351 127 110.075 127Z" fill="#D5D6DB"/>
<path d="M110.075 130C109.799 130 109.575 130.174 109.575 130.388V131.612C109.575 131.826 109.799 132 110.075 132C110.351 132 110.575 131.826 110.575 131.612V130.388C110.575 130.174 110.351 130 110.075 130Z" fill="#D5D6DB"/>
<path d="M110.075 133C109.799 133 109.575 133.174 109.575 133.388V134.612C109.575 134.826 109.799 135 110.075 135C110.351 135 110.575 134.826 110.575 134.612V133.388C110.575 133.174 110.351 133 110.075 133Z" fill="#D5D6DB"/>
<path d="M110.075 136C109.799 136 109.575 136.174 109.575 136.388V137.612C109.575 137.826 109.799 138 110.075 138C110.351 138 110.575 137.826 110.575 137.612V136.388C110.575 136.174 110.351 136 110.075 136Z" fill="#D5D6DB"/>
<path d="M110.075 139C109.799 139 109.575 139.174 109.575 139.388V140.612C109.575 140.826 109.799 141 110.075 141C110.351 141 110.575 140.826 110.575 140.612V139.388C110.575 139.174 110.351 139 110.075 139Z" fill="#D5D6DB"/>
</g>
<path d="M119.575 108H196.575V113H119.575V108Z" fill="#D5D6DB"/>
<path d="M119.575 121H196.575V126H119.575V121Z" fill="#D5D6DB"/>
<path d="M119.575 134H153.575V139H119.575V134Z" fill="#D5D6DB"/>
<path d="M212.575 108C208.157 108 204.575 111.582 204.575 116C204.575 120.418 208.157 124 212.575 124C216.993 124 220.575 120.418 220.575 116C220.575 111.582 216.993 108 212.575 108Z" fill="#44C4A1"/>
<path d="M68.2973 119.66C71.1964 119.66 73.1291 117.904 73.1291 115.432C73.1291 113.149 71.476 111.521 69.2394 111.521C68.0603 111.521 67.0818 112.007 66.6685 112.668H66.5956L66.8812 109.84H72.3937V107.504H64.4076L63.8667 113.968L66.5226 114.449C66.8569 113.91 67.5498 113.576 68.2791 113.582C69.4217 113.582 70.2361 114.361 70.2301 115.514C70.2361 116.662 69.4339 117.435 68.2973 117.435C67.331 117.435 66.5348 116.855 66.4923 115.971H63.575C63.6114 118.126 65.5745 119.66 68.2973 119.66Z" fill="#4D5A6A"/>
<path d="M79.9286 119.789C83.1863 119.795 85.1858 117.476 85.1919 113.518C85.198 109.582 83.1863 107.34 79.9286 107.34C76.6709 107.34 74.6774 109.577 74.6714 113.518C74.6592 117.464 76.6709 119.789 79.9286 119.789ZM79.9286 117.418C78.634 117.418 77.7528 116.164 77.7649 113.518C77.771 110.923 78.6401 109.694 79.9286 109.694C81.2231 109.694 82.0923 110.923 82.0983 113.518C82.1044 116.164 81.2292 117.418 79.9286 117.418Z" fill="#4D5A6A"/>
<path d="M93.8861 117.248C93.8922 118.729 94.8828 120 96.7244 120C98.5599 120 99.587 118.729 99.5748 117.248V116.615C99.587 115.116 98.5842 113.863 96.7244 113.863C94.9071 113.863 93.8922 115.134 93.8861 116.615V117.248ZM87.4315 110.385C87.4437 111.866 88.4283 113.114 90.2698 113.114C92.1114 113.114 93.1325 111.884 93.1264 110.385V109.752C93.1325 108.253 92.1357 107 90.2698 107C88.4708 107 87.4437 108.253 87.4315 109.752V110.385ZM88.0636 119.496H89.7228L98.2803 107.504H96.6211L88.0636 119.496ZM95.8249 116.615C95.831 116.094 96.0376 115.526 96.7244 115.526C97.4537 115.526 97.63 116.094 97.6178 116.615V117.248C97.63 117.769 97.4294 118.314 96.7244 118.314C96.0315 118.314 95.831 117.751 95.8249 117.248V116.615ZM89.3886 109.752C89.4007 109.249 89.5831 108.663 90.2698 108.663C90.9992 108.663 91.1754 109.231 91.1633 109.752V110.385C91.1754 110.906 90.9749 111.45 90.2698 111.45C89.6013 111.45 89.4007 110.906 89.3886 110.385V109.752Z" fill="#4D5A6A"/>
<path d="M64.8274 133.528L66.3907 132.641C66.547 132.552 66.7401 132.55 66.8979 132.637L71.7863 135.307L74.4572 136.037L82.9897 131.164L82.1841 130.53C82.0721 130.442 82.0854 130.272 82.2099 130.201L84.2862 129.023C84.4368 128.938 84.6123 128.903 84.7852 128.925L86.525 129.144L90.9636 126.609C90.9636 126.609 93.583 124.858 95.8167 125.009L95.8175 125.008C95.8211 125.008 95.8255 125.009 95.8292 125.009C95.846 125.011 95.8624 125.014 95.8792 125.015C95.987 125.022 96.0988 125.038 96.2128 125.062C96.2862 125.075 96.3581 125.092 96.4301 125.11C96.6222 125.16 96.7666 125.209 96.7666 125.209C96.7666 125.209 97.7323 124.977 98.3137 125.494C98.8952 126.011 98.4889 127.321 97.2649 128.448C96.0409 129.575 95.1511 130.445 92.1546 132.279C90.8992 133.047 89.0315 134.084 87.2832 135.03L84.3004 139.266C84.1029 139.536 83.841 139.756 83.537 139.906L81.0027 141.156C80.7504 141.281 80.4813 141.02 80.6094 140.775L82.2499 137.639C81.2023 138.03 78.4112 139.044 76.915 139.334C75.9736 139.516 73.7629 139.759 71.8032 139.955L70.6239 141.294C70.5436 141.404 70.4372 141.493 70.3136 141.554L69.2376 141.987C69.1351 142.038 69.0256 141.931 69.0777 141.832L70.02 140.128C69.3059 140.195 68.7338 140.247 68.4325 140.274C68.2891 140.286 68.1525 140.217 68.0798 140.097C67.9766 139.925 68.0357 139.705 68.2118 139.605L68.9792 139.166L64.6964 134.275C64.491 134.041 64.5537 133.683 64.8274 133.528Z" fill="#4D5A6A"/>
<path d="M222.935 170.263C237.67 170.263 249.615 158.394 249.615 143.754C249.615 129.114 237.67 117.245 222.935 117.245C208.199 117.245 196.254 129.114 196.254 143.754C196.254 158.394 208.199 170.263 222.935 170.263Z" fill="#FFD666"/>
<path d="M223.481 165.55C235.269 165.55 244.825 156.056 244.825 144.343C244.825 132.631 235.269 123.136 223.481 123.136C211.693 123.136 202.136 132.631 202.136 144.343C202.136 156.056 211.693 165.55 223.481 165.55Z" fill="#FFC53D"/>
<path d="M223 150.26L215.947 154.208L217.522 146.28L211.587 140.792L219.614 139.84L223 132.5L226.386 139.84L234.413 140.792L228.478 146.28L230.053 154.208L223 150.26Z" fill="white"/>
<defs>
<clipPath id="clip0">
<rect width="0.999855" height="35" fill="white" transform="translate(109.575 106)"/>
</clipPath>
</defs>
</svg>
