<svg width="648" height="260" viewBox="0 0 648 260" fill="none" xmlns="http://www.w3.org/2000/svg">
<path d="M466.873 216H648V81.2221C648 62.8784 632.991 48 614.471 48C597.253 48 583.064 60.873 581.168 77.4436C578.612 76.3354 575.779 75.7197 572.797 75.7197C561.306 75.7197 551.963 84.9021 551.853 96.2659C546.453 92.709 539.971 90.6438 533.006 90.6438C528.501 90.6438 524.212 91.5057 520.279 93.0854C518.55 93.7679 516.889 94.5947 515.302 95.5411C513.626 96.5578 512.04 97.7118 510.566 98.9889C507.414 97.5535 503.91 96.762 500.225 96.762C499.132 96.762 498.049 96.8288 496.991 96.9695C494.794 97.2509 492.685 97.8103 490.704 98.6301C488.475 99.5448 486.409 100.773 484.556 102.257C483.001 103.51 481.595 104.945 480.381 106.532C479.873 107.19 479.408 107.872 478.972 108.579C478.12 107.513 477.186 106.507 476.199 105.568C470.97 100.66 463.902 97.6415 456.128 97.6415C453.252 97.6415 450.48 98.0496 447.853 98.8165C445.4 99.5448 443.092 100.569 440.959 101.867C432.588 106.933 427 116.08 427 126.508C427 127.152 427.018 127.789 427.06 128.415C432.776 135.332 436.205 144.176 436.205 153.813C436.205 156.715 435.893 159.547 435.31 162.27C436.702 162.049 438.143 161.936 439.595 161.936C448.594 161.936 456.564 166.253 461.534 172.909C462.205 172.85 462.894 172.814 463.582 172.814C475.613 172.814 485.369 182.482 485.369 194.402C485.369 205.224 477.342 214.181 466.873 215.75V216Z" fill="#F5F7F9"/>
<path d="M464.509 221H0V81.9347H0.574921C0.19516 80.0999 0 78.2051 0 76.2607C0 60.6456 12.706 48 28.3721 48C44.0381 48 56.7406 60.6456 56.7406 76.2607C56.7406 77.8445 56.6129 79.3964 56.3574 80.9165C58.7069 80.5878 61.1061 80.4251 63.5515 80.4251C67.2107 80.4251 70.7847 80.7999 74.231 81.5069C88 80.9165 99.4514 94.5272 99.4514 94.5272C104.509 99.2326 108.63 104.917 111.515 111.277C114.809 110.305 118.298 109.785 121.903 109.785C125.243 109.785 128.48 110.231 131.554 111.069V111.001C131.554 91.5046 147.419 75.7021 166.992 75.7021C183.485 75.7021 197.359 86.9335 201.302 102.146C214.792 103.56 225.475 114.388 226.576 127.917C236.215 115.64 251.214 107.742 268.066 107.742C290.617 107.742 309.857 121.883 317.349 141.74C322.538 138.792 328.547 137.102 334.95 137.102C342.698 137.102 349.86 139.57 355.702 143.762C361.615 128.801 376.259 118.203 393.383 118.203C415.725 118.203 433.847 136.253 433.847 158.511C433.847 161.428 433.535 164.274 432.953 167.01C434.344 166.787 435.785 166.674 437.237 166.674C446.234 166.674 454.202 171.012 459.171 177.701C459.842 177.64 460.53 177.605 461.219 177.605C473.247 177.605 483 187.32 483 199.297C483 210.172 474.975 219.172 464.509 220.749V221Z" fill="#F5F7F9"/>
<path fill-rule="evenodd" clip-rule="evenodd" d="M0 174.938C116.128 210.247 231.384 208.815 345.77 170.644C460.156 132.472 560.899 109.258 648 101V260H0V174.938Z" fill="#F5F7F9"/>
<path d="M420.117 241H316.888C313.65 241 311 238.356 311 235.121V28.8778C311 25.6452 313.65 23 316.888 23H420.117C423.352 23 426 25.6452 426 28.8778V235.121C426 238.356 423.352 241 420.117 241Z" fill="#92B7E3"/>
<path d="M432 28.8798V235.123C432 238.354 429.352 241 426.115 241H322.885C319.648 241 317 238.354 317 235.123V28.8798C317 25.6459 319.648 23 322.885 23H426.115C429.352 23 432 25.6459 432 28.8798Z" fill="#CEDDF8"/>
<path d="M391.397 30.9487H361.59C360.951 30.9487 360.431 30.4262 360.431 29.7899C360.431 29.1516 360.951 28.6291 361.59 28.6291H391.397C392.035 28.6291 392.555 29.1516 392.555 29.7899C392.555 30.4262 392.035 30.9487 391.397 30.9487Z" fill="#8FB5EF"/>
<path d="M356.295 30.9487C355.657 30.9487 355.137 30.427 355.137 29.789C355.137 29.151 355.657 28.6294 356.295 28.6294C356.934 28.6294 357.456 29.151 357.456 29.789C357.456 30.427 356.934 30.9487 356.295 30.9487Z" fill="#8FB5EF"/>
<path d="M383.764 228.5C383.764 230.559 382.933 232.425 381.589 233.779C380.231 235.153 378.346 236 376.264 236C372.123 236 368.764 232.641 368.764 228.5C368.764 225.836 370.152 223.499 372.245 222.169C373.405 221.429 374.785 221 376.264 221C380.406 221 383.764 224.357 383.764 228.5Z" fill="#78ACEA"/>
<path d="M426 217H324V36H426V217Z" fill="#95C0F4"/>
<path d="M424.312 122H424.074H377.263H330.217C329.418 122 328.764 121.151 328.764 120.115V59.8863C328.764 58.8463 329.418 58 330.217 58H377.263H424.074H424.312C425.112 58 425.764 58.8463 425.764 59.8863V120.115C425.764 121.151 425.112 122 424.312 122Z" fill="#7BAEEB"/>
<path d="M388.636 196H388.414H344.518H311V131H344.518H388.414H388.636C389.387 131 390 131.862 390 132.916V194.087C390 195.138 389.387 196 388.636 196Z" fill="#7BAEEB"/>
<path d="M271.502 196H271.747H309.588H311V131H309.588H271.747H271.502C270.675 131 270 131.862 270 132.916V194.087C270 195.138 270.675 196 271.502 196Z" fill="#C9D7EC"/>
<path d="M459.853 53.9163V115.087C459.853 116.138 458.996 117 457.946 117H334.669C333.622 117 332.764 116.138 332.764 115.087V53.9163C332.764 52.8611 333.622 52 334.669 52H457.946C458.996 52 459.853 52.8611 459.853 53.9163Z" fill="#F5F7F9"/>
<path d="M461 53.9158V115.085C461 116.138 459.997 117 458.769 117H397V52H458.769C459.997 52 461 52.8613 461 53.9158Z" fill="#2680EB"/>
<path d="M426.645 76H405.355C404.61 76 404 75.3344 404 74.5211C404 73.7078 404.61 73.0424 405.355 73.0424H426.645C427.39 73.0424 428 73.7078 428 74.5211C428 75.3344 427.39 76 426.645 76Z" fill="#ECEFF4"/>
<path d="M421.779 80H405.221C404.551 80 404 79.4065 404 78.6803V78.3197C404 77.5938 404.551 77 405.221 77H421.779C422.451 77 423 77.5938 423 78.3197V78.6803C423 79.4065 422.451 80 421.779 80Z" fill="#ECEFF4"/>
<path d="M409.317 60.8706C408.929 60.3239 408.432 60.0517 407.83 60.0517C407.225 60.0517 406.728 60.3239 406.338 60.8706C405.948 61.4151 405.755 62.0968 405.755 62.905C405.755 63.7239 405.948 64.4056 406.329 64.9501C406.719 65.4861 407.214 65.7583 407.83 65.7583C408.443 65.7583 408.938 65.4861 409.317 64.9501C409.708 64.4056 409.903 63.7239 409.903 62.905C409.903 62.0968 409.708 61.4151 409.317 60.8706ZM405.804 60.4032C406.318 59.7215 407 59.3807 407.83 59.3807C408.655 59.3807 409.328 59.7215 409.843 60.3925C410.361 61.0635 410.614 61.9017 410.614 62.905C410.614 63.9083 410.361 64.7465 409.843 65.4175C409.328 66.0906 408.655 66.4315 407.83 66.4315C407 66.4315 406.318 66.0906 405.804 65.4175C405.285 64.7465 405.034 63.9083 405.034 62.905C405.034 61.9124 405.285 61.0742 405.804 60.4032Z" fill="#ECEFF4"/>
<path d="M413.144 60.5196C412.832 60.8229 412.677 61.2114 412.677 61.6893C412.677 62.1563 412.832 62.5273 413.153 62.8088C413.474 63.0925 413.865 63.2278 414.343 63.2278C414.74 63.2278 415.111 63.1013 415.451 62.8481C415.792 62.595 416.016 62.2829 416.143 61.9032C416.027 60.7356 415.384 60.0526 414.321 60.0526C413.856 60.0526 413.465 60.2097 413.144 60.5196ZM416.171 60.2293C416.63 60.7836 416.865 61.5714 416.865 62.5753C416.902 64.6987 415.755 66.4511 413.902 66.4315C413.347 66.4315 412.861 66.2962 412.464 66.0125V65.3207C412.891 65.6131 413.347 65.7593 413.845 65.7593C415.46 65.7593 416.134 64.2884 416.163 62.8481C415.803 63.4613 415.091 63.8607 414.166 63.8607C413.553 63.8607 413.027 63.6556 412.599 63.2562C412.18 62.8481 411.966 62.3222 411.966 61.6893C411.966 61.0171 412.189 60.4716 412.627 60.0329C413.075 59.5943 413.631 59.3804 414.284 59.3804C415.082 59.3804 415.715 59.6641 416.171 60.2293Z" fill="#ECEFF4"/>
<path d="M418.304 65.506C418.5 65.3127 418.829 65.3127 419.027 65.506C419.22 65.7015 419.22 66.0331 419.027 66.2264C418.829 66.4219 418.5 66.4219 418.304 66.2264C418.111 66.0331 418.111 65.7015 418.304 65.506ZM418.304 61.8839C418.5 61.6884 418.829 61.6884 419.027 61.8839C419.22 62.0794 419.22 62.4089 419.027 62.6043C418.829 62.7998 418.5 62.7998 418.304 62.6043C418.111 62.4089 418.111 62.0794 418.304 61.8839Z" fill="#ECEFF4"/>
<path d="M421.675 66.3141V60.2756L420.146 61.1531V60.4617L421.753 59.4978H422.386V66.3141H421.675Z" fill="#ECEFF4"/>
<path d="M428.387 60.8703C427.998 60.3232 427.501 60.0519 426.897 60.0519C426.293 60.0519 425.798 60.3232 425.407 60.8703C425.018 61.4151 424.824 62.0956 424.824 62.9049C424.824 63.7229 425.018 64.4047 425.396 64.95C425.787 65.4858 426.284 65.7582 426.897 65.7582C427.512 65.7582 428.007 65.4858 428.387 64.95C428.778 64.4047 428.972 63.7229 428.972 62.9049C428.972 62.0956 428.778 61.4151 428.387 60.8703ZM424.871 60.4023C425.387 59.7196 426.07 59.3805 426.897 59.3805C427.725 59.3805 428.396 59.7196 428.914 60.391C429.429 61.0647 429.682 61.9012 429.682 62.9049C429.682 63.9078 429.429 64.7456 428.914 65.4173C428.396 66.0894 427.725 66.4303 426.897 66.4303C426.07 66.4303 425.387 66.0894 424.871 65.4173C424.356 64.7456 424.103 63.9078 424.103 62.9049C424.103 61.9125 424.356 61.0737 424.871 60.4023Z" fill="#ECEFF4"/>
<path d="M434.599 62.6523H436.692C437.658 62.6523 438.212 62.1947 438.212 61.4058C438.212 60.5975 437.658 60.1493 436.692 60.1493H434.599V62.6523ZM433.878 66.3141V59.4969H436.743C438.105 59.4969 438.923 60.2566 438.923 61.3861C438.923 62.5453 438.105 63.3047 436.743 63.3047H434.599V66.3141H433.878Z" fill="#ECEFF4"/>
<path d="M440.354 66.3138V59.4966H441.066L443.531 62.7978L445.993 59.4966H446.695V66.3138H445.983V60.5871L443.753 63.5672H443.316L441.066 60.5871V66.3138H440.354Z" fill="#ECEFF4"/>
<path d="M369.764 117H334.689C333.629 117 332.764 116.128 332.764 115.065V73C342.325 84.359 361.047 106.627 369.764 117Z" fill="#ECEFF4"/>
<path d="M375.588 105H353.412C352.638 105 352 104.325 352 103.5C352 102.675 352.638 102 353.412 102H375.588C376.364 102 377 102.675 377 103.5C377 104.325 376.364 105 375.588 105Z" fill="#AEB7C7"/>
<path d="M371.866 109H355.226C354.553 109 354 108.406 354 107.681V107.32C354 106.593 354.553 106 355.226 106H371.866C372.538 106 373.091 106.593 373.091 107.32V107.681C373.091 108.406 372.538 109 371.866 109Z" fill="#AEB7C7"/>
<path d="M400 128.883V189.115C400 190.153 399.15 191 398.112 191H275.89C274.85 191 274 190.153 274 189.115V128.883C274 127.847 274.85 127 275.89 127H398.112C399.15 127 400 127.847 400 128.883Z" fill="#F5F7F9"/>
<path d="M400 128.885V189.113C400 190.151 399.154 191 398.12 191H344V127H398.12C399.154 127 400 127.849 400 128.885Z" fill="#2680EB"/>
<path d="M371.225 170C370.158 170 369.169 169.45 368.628 168.549L360.695 155.34C359.856 153.943 360.338 152.147 361.771 151.329C363.207 150.512 365.053 150.983 365.892 152.38L370.981 160.853L380.564 141.651C381.29 140.195 383.092 139.588 384.588 140.296C386.082 141.004 386.706 142.758 385.979 144.214L373.934 168.349C373.447 169.323 372.451 169.956 371.341 169.998C371.303 169.998 371.264 170 371.225 170Z" fill="#ECEFF4"/>
<path d="M371.261 142.167C362.256 142.167 354.933 149.494 354.933 158.5C354.933 167.506 362.256 174.833 371.261 174.833C380.267 174.833 387.591 167.506 387.591 158.5C387.591 149.494 380.267 142.167 371.261 142.167ZM371.261 177C361.063 177 352.764 168.702 352.764 158.5C352.764 148.298 361.063 140 371.261 140C381.462 140 389.76 148.298 389.76 158.5C389.76 168.702 381.462 177 371.261 177Z" fill="#ECEFF4"/>
<path d="M310 191H275.901C274.855 191 274 190.144 274 189.095V142L310 191Z" fill="#ECEFF4"/>
<path d="M322.449 145H286.083C284.807 145 283.764 144.1 283.764 143.001C283.764 141.9 284.807 141 286.083 141H322.449C323.724 141 324.764 141.9 324.764 143.001C324.764 144.1 323.724 145 322.449 145Z" fill="#AEB7C7"/>
<path d="M313.707 153H285.821C284.689 153 283.764 152.21 283.764 151.24V150.76C283.764 149.793 284.689 149 285.821 149H313.707C314.839 149 315.764 149.793 315.764 150.76V151.24C315.764 152.21 314.839 153 313.707 153Z" fill="#AEB7C7"/>
<path d="M319.618 169H285.91C284.731 169 283.764 168.1 283.764 166.999C283.764 165.9 284.731 165 285.91 165H319.618C320.797 165 321.764 165.9 321.764 166.999C321.764 168.1 320.797 169 319.618 169Z" fill="#AEB7C7"/>
<path d="M311.838 177H285.69C284.632 177 283.764 176.207 283.764 175.24V174.76C283.764 173.793 284.632 173 285.69 173H311.838C312.9 173 313.764 173.793 313.764 174.76V175.24C313.764 176.207 312.9 177 311.838 177Z" fill="#AEB7C7"/>
<path d="M156.947 163.029C156.498 151.986 155.53 142.379 154.372 135.679C152.525 125.001 150.862 118.856 150.843 118.791C150.6 117.851 147.085 114.052 139.272 114.17C131.458 114.286 132.199 119.27 132.199 119.27C132.198 119.438 132.22 119.594 132.255 119.712C132.33 119.97 139.503 145.977 139.192 179.557C139.188 180.028 139.135 180.842 139.168 181.385C139.168 181.386 157.276 181.853 157.28 181.385C157.912 178.45 157.604 170.318 156.947 163.029Z" fill="#B7D3F3"/>
<path d="M159.224 179.391C159.218 179.857 158.971 180.233 158.67 180.233H158.663C158.362 180.226 158.122 179.852 158.119 179.391H142.6C142.595 179.857 142.348 180.233 142.047 180.233H142.039C141.733 180.226 141.49 179.839 141.493 179.366C141.583 169.754 141.035 160.778 140.206 152.856C138.143 133.1 134.329 119.895 134.275 119.712C134.241 119.594 134.219 119.438 134.219 119.27C134.219 119.27 133.478 114.288 141.291 114.17C149.106 114.052 152.621 117.851 152.864 118.791C152.878 118.84 153.82 122.32 155.071 128.574C155.486 130.647 155.933 133.022 156.393 135.679C157.55 142.379 158.519 151.986 158.968 163.027C159.624 170.318 159.855 176.457 159.224 179.391Z" fill="#D2E3FC"/>
<path d="M140.346 180.233H201.186C201.186 180.233 199.769 174.5 164.535 175.354C139.6 175.958 140.346 180.233 140.346 180.233Z" fill="#C5DCF8"/>
<path d="M135.394 240.119C142.448 204.409 140.635 182.496 140.626 182.219C140.608 181.669 141.621 181.171 142.166 181.152C142.718 181.143 145.153 180.991 145.435 181.461C145.804 182.077 147.224 209.077 136.711 240.119H135.394Z" fill="#B7D3F3"/>
<path d="M192.2 240.119C185.146 204.409 186.959 182.496 186.968 182.219C186.986 181.669 185.973 181.171 185.428 181.152C184.876 181.143 182.441 180.991 182.159 181.461C181.79 182.077 180.37 209.077 190.883 240.119H192.2Z" fill="#B7D3F3"/>
<path d="M203.457 240.119C196.403 204.409 198.217 182.496 198.226 182.219C198.244 181.669 197.23 181.171 196.685 181.152C196.133 181.143 193.698 180.991 193.417 181.461C193.048 182.077 191.627 209.077 202.141 240.119H203.457Z" fill="#B7D3F3"/>
<path d="M146.728 240.119C153.782 204.409 151.968 182.496 151.959 182.219C151.941 181.669 152.955 181.171 153.5 181.152C154.052 181.143 156.486 180.991 156.768 181.461C157.137 182.077 158.558 209.077 148.044 240.119H146.728Z" fill="#B7D3F3"/>
<path d="M201.222 182.063H140.382C139.697 182.063 139.136 181.503 139.136 180.817V179.997C139.136 179.312 139.697 178.751 140.382 178.751H201.222C201.908 178.751 202.468 179.312 202.468 179.997V180.817C202.468 181.503 201.908 182.063 201.222 182.063Z" fill="#B7D3F3"/>
<path d="M199.085 127.119L219.309 122.739L220.5 125.643C220.5 125.643 198.185 138.92 196.094 138.269C194.004 137.62 199.085 127.119 199.085 127.119Z" fill="#FFB27D"/>
<path d="M180.699 218.584C180.192 219.164 180.127 219.812 180.378 220.505L180.383 220.515C180.847 221.796 182.378 223.227 184.157 224.654C184.385 224.839 184.587 225.006 184.763 225.16C184.809 225.2 184.855 225.242 184.899 225.282C184.935 225.313 184.969 225.347 185.004 225.376C186.662 226.905 186.038 227.257 189.019 230.36C192.417 233.895 194.757 233.958 195.422 233.637C195.986 233.361 194.841 231.486 193.574 229.379C193.512 229.277 193.452 229.174 193.389 229.072C193.22 228.791 193.052 228.506 192.885 228.225C191.399 225.688 191.781 224.498 192.133 220.722C192.419 217.655 196.906 203.583 196.906 203.583L190.393 202.461C190.393 202.461 188.432 213.667 186.271 215.392C185.115 216.311 183.822 216.324 182.711 217.006C182.633 217.053 182.556 217.1 182.48 217.151C181.849 217.57 181.206 218.002 180.699 218.584Z" fill="#FFB27D"/>
<path d="M180.699 218.584C180.192 219.164 180.127 219.812 180.378 220.505L180.383 220.515C180.951 221.794 182.444 223.218 184.163 224.641C184.388 224.828 184.586 225.001 184.763 225.16C184.809 225.2 184.855 225.242 184.899 225.282C184.935 225.313 184.969 225.347 185.004 225.376C186.662 226.905 186.038 227.257 189.019 230.36C192.417 233.895 194.757 233.958 195.422 233.637C195.986 233.361 194.841 231.486 193.574 229.379C192.912 229.136 189.839 227.888 187.516 224.915C185.469 222.304 184.105 218.948 182.711 217.006C182.633 217.053 182.556 217.1 182.48 217.151C181.849 217.57 181.206 218.002 180.699 218.584Z" fill="#1C468A"/>
<path d="M233.212 214.516C233.614 216.526 236.48 216.19 239.681 215.408C242.883 214.627 242.121 215.557 246.678 215.051C251.234 214.547 252.614 212.849 252.754 212.171C252.877 211.571 250.627 211.359 248.211 211.079C247.908 211.047 247.603 211.008 247.299 210.97C244.571 210.628 242.574 208.868 240.098 207.425C237.753 206.055 234.252 200.48 234.252 200.48L228.003 200.974C228.003 200.974 231.282 205.956 232.551 208.119C233.296 209.394 233.257 211.077 233.164 212.378C233.115 213.085 233.069 213.809 233.212 214.516Z" fill="#FFB27D"/>
<path d="M239.681 215.408C242.883 214.627 242.122 215.557 246.679 215.051C251.235 214.547 252.615 212.849 252.754 212.171C252.878 211.571 250.627 211.359 248.211 211.079L248.189 211.126C248.189 211.126 245.456 213.063 241.664 213.154C238.573 213.23 235.299 212.343 233.164 212.378C233.116 213.085 233.07 213.809 233.212 214.516C233.614 216.526 236.48 216.19 239.681 215.408Z" fill="#1C468A"/>
<path d="M219.308 122.739C219.308 122.739 220.797 119.092 222.435 118.943C224.072 118.795 229.283 117.975 229.655 118.718C230.027 119.464 229.655 122.144 228.539 123.111C227.422 124.079 220.499 125.643 220.499 125.643L219.308 122.739Z" fill="#FFB27D"/>
<path d="M209.266 174.56L195.799 210.803C195.799 210.803 193.73 211.003 191.746 210.432C189.921 209.906 187.83 208.524 187.83 208.524C187.83 208.524 191.17 173.726 197.295 166.487C203.42 159.249 209.266 174.56 209.266 174.56Z" fill="#163560"/>
<path d="M156.001 159.898C156.001 159.898 194.697 146.815 203.327 149.599C211.957 152.383 237.869 203.935 237.869 203.935C237.869 203.935 237.285 204.713 235.688 205.312C234.203 205.868 230.609 205.832 230.609 205.832C230.609 205.832 207.224 185.788 204.441 179.943C201.657 174.095 200.543 168.529 197.759 169.084C194.975 169.643 161.847 182.727 154.33 174.932C146.814 167.137 148.78 157.009 148.78 157.009L156.001 159.898Z" fill="#1C468A"/>
<path d="M178.062 67.6358C176.389 66.6836 174.384 66.5802 172.983 66.6637C173.344 66.2901 174.054 66.1558 174.054 66.1558C173.184 66.0253 171.244 66.8885 171.244 66.8885C159.15 62.2275 157.249 80.0355 157.503 84.1724C157.756 88.3093 157.786 93.0701 151.749 96.7808C139.871 104.081 149.893 116.827 149.893 116.827C149.987 116.881 155.42 126.096 155.42 126.096C155.115 122.754 170.54 105.111 178.587 99.8277C180.546 96.944 181.243 91.8477 181.295 91.4469C180.957 95.4877 180.266 97.7529 179.648 99.0297C186.463 92.7563 182.495 70.1549 178.062 67.6358Z" fill="#B5453C"/>
<path d="M178.111 100.09C178.151 100.109 174.225 102.147 171.272 101.338C168.495 100.582 166.68 96.9801 166.718 96.9729C167.894 96.7389 168.233 95.1211 168.208 88.175L168.74 88.2801L177.682 90.0503C177.682 90.0503 177.478 92.865 177.472 95.5165C177.466 97.7418 177.601 99.8529 178.111 100.09Z" fill="#FFB27D"/>
<path d="M177.682 90.0503C177.682 90.0503 177.479 92.8651 177.473 95.5166C172.469 95.3751 169.824 90.8102 168.74 88.2802L177.682 90.0503Z" fill="#ED975D"/>
<path d="M167.817 87.3062C167.817 87.3062 165.195 83.1639 164.566 79.6201C164.116 77.0919 165.404 67.7154 174.826 69.0666C174.826 69.0666 177.562 69.3368 180.134 71.0724C182.179 72.4544 185.132 75.4378 181.831 83.6191L180.973 86.3813L167.817 87.3062Z" fill="#B5453C"/>
<path d="M179.353 92.5603C179.353 92.5603 167.515 92.7562 167.506 85.382C167.498 78.0078 165.965 73.0657 173.523 72.6304C181.081 72.1933 182.553 75.0063 183.154 77.4674C183.756 79.9266 182.432 92.3191 179.353 92.5603Z" fill="#FFB27D"/>
<path d="M178.915 72.4491C178.915 72.4491 175.674 81.1001 170.699 82.3805C165.725 83.6591 163.567 82.3261 163.567 82.3261C163.567 82.3261 167.383 79.2955 168.174 74.0034C168.174 74.0034 176.47 68.3322 178.915 72.4491Z" fill="#B5453C"/>
<path d="M178.111 73.151C178.111 73.151 180.532 75.0825 181.122 76.9614C181.712 78.8385 181.978 82.7052 183.104 82.5728C183.104 82.5728 185.547 76.693 182.802 73.3668C179.892 69.8393 178.111 73.151 178.111 73.151Z" fill="#B5453C"/>
<path d="M151.749 131.94C150.582 127.043 154.554 117.543 158.7 109.677C162.462 102.548 166.367 96.7645 166.718 96.9712C176.64 102.862 177.537 97.9651 177.537 97.9651H177.537C177.541 97.9669 186.551 99.1621 189.102 103.555C192.268 109.006 195.688 124.235 199.085 127.119C198.563 128.715 198.787 129.566 199.34 131.544C199.459 131.969 199.589 132.371 199.733 132.752C200.245 134.145 200.886 135.273 201.439 136.254C199.712 137.304 196.377 139.299 193.92 137.865C190.175 135.672 187.253 129 185.608 126.343L185.59 126.312C182.015 146.549 186.876 151.155 184.415 153.29C181.817 155.542 178.105 152.216 169.938 155.756C164.582 158.08 157.148 161.438 152.145 162.024C149.52 162.333 147.562 161.875 146.924 160.104C145.068 154.953 153.977 141.274 151.749 131.94Z" fill="#1C468A"/>
<path d="M176.721 88.0898C176.721 88.0898 176.942 89.0274 179.273 88.8823C179.273 88.8823 181.229 88.7626 181.169 87.7325C181.169 87.7325 179.272 86.9998 176.721 88.0898Z" fill="white"/>
<path d="M146.924 160.104C147.562 161.875 149.52 162.333 152.145 162.024C155.608 160.515 170.569 154.719 170.402 150.791C170.154 144.976 167.525 144.791 169.382 137.613C170.872 131.851 157.048 121.136 154.843 118.805C150.696 126.671 150.582 127.043 151.749 131.94C153.977 141.274 145.068 154.953 146.924 160.104Z" fill="#163560"/>
<path d="M145.232 139.131C147.886 135.404 150.65 133.434 152.468 132.444C152.049 131.365 163.628 117.169 163.628 114.969C163.628 112.742 166.718 96.971 166.718 96.971C166.718 96.971 157.07 97.5659 153.729 102.225C149.552 108.052 140.875 130.474 145.232 139.131Z" fill="#1C468A"/>
<path d="M152.468 132.444L171.748 137.475L169.938 140.723C169.938 140.723 146.476 140.558 145.232 139.131C143.989 137.702 152.468 132.444 152.468 132.444Z" fill="#FFB27D"/>
<path d="M185.608 126.343C187.253 129 190.175 135.672 193.92 137.865C196.377 139.299 199.712 137.304 201.438 136.254C200.886 135.273 200.245 134.145 199.733 132.752C198.355 133.068 196.673 133.47 195.589 133.799C193.478 134.437 185.608 126.343 185.608 126.343Z" fill="#163560"/>
<path d="M171.748 137.475C171.748 137.475 177.802 135.761 179.244 136.162C180.687 136.563 185.628 139.834 184.933 140.723C184.238 141.61 179.885 140.19 177.882 140.458C175.879 140.728 174.33 141.717 172.888 141.503C171.446 141.289 169.938 140.723 169.938 140.723L171.748 137.475Z" fill="#FFB27D"/>
<path d="M171.748 137.475C171.748 137.475 174.71 135.953 175.553 135.087C175.659 134.978 175.839 134.999 175.92 135.128C176.146 135.486 176.358 136.173 175.319 136.857C173.823 137.84 171.748 137.475 171.748 137.475Z" fill="#FFB27D"/>
<path d="M199.728 145.992H171.481C171.481 144.749 172.489 143.741 173.732 143.741H199.728V145.992Z" fill="#ED7D2B"/>
<path d="M199.646 115.229H243.318L232.843 145.992H188.888L199.646 115.229Z" fill="#ED7D2B"/>
<path d="M243.962 115.229L233.485 145.992H189.532L200.29 115.229H243.962Z" fill="#F99746"/>
<path d="M220.416 130.326C220.145 131.501 218.972 132.455 217.797 132.455C216.621 132.455 215.888 131.501 216.16 130.326C216.431 129.15 217.604 128.198 218.779 128.198C219.955 128.198 220.687 129.15 220.416 130.326Z" fill="#F9DDBF"/>
<path d="M243.962 115.229L233.485 145.992H204.377C223.659 139.41 228.792 119.342 229.653 115.229H243.962Z" fill="#ED893E"/>
<path d="M117.177 240.119C117.729 240.119 118.202 239.731 118.296 239.201L123.781 208.112L131.671 163.399L133.877 150.896L128.257 150.734L127.282 157.992L120.437 209.001L116.378 239.234C116.316 239.704 116.69 240.119 117.177 240.119Z" fill="#95C0F4"/>
<path d="M127.282 157.992C130.923 159.599 131.671 163.399 131.671 163.399L133.877 150.896L128.257 150.734L127.282 157.992Z" fill="#78ACEA"/>
<path d="M256.949 240.119C256.396 240.119 255.924 239.731 255.83 239.201L250.344 208.112L242.455 163.399L240.249 150.896L245.868 150.734L246.844 157.992L253.688 209.001L257.747 239.234C257.809 239.704 257.435 240.119 256.949 240.119Z" fill="#95C0F4"/>
<path d="M246.844 157.992C243.202 159.599 242.455 163.399 242.455 163.399L240.249 150.896L245.868 150.734L246.844 157.992Z" fill="#78ACEA"/>
<path d="M113.428 155.803H257.332C259.216 155.803 260.76 154.262 260.76 152.376V149.414C260.76 147.528 259.216 145.986 257.332 145.986H113.428C111.542 145.986 110 147.528 110 149.414V152.376C110 154.262 111.542 155.803 113.428 155.803Z" fill="#78ACEA"/>
<path d="M448.253 79.9082C448.253 79.9082 446.246 73.4271 445.104 72.7301C443.964 72.0332 439.206 69.6884 438.923 70.3222C438.64 70.9558 441.492 74.0343 442.124 75.0616C442.76 76.0886 443.076 77.1023 442.632 76.659C442.188 76.2154 439.783 74.7315 439.528 75.0616C439.274 75.3916 440.732 76.659 441.428 77.6727C442.124 78.6865 442.886 80.3976 445.356 80.7778C447.828 81.158 448.253 79.9082 448.253 79.9082Z" fill="#FFB27D"/>
<path d="M521.484 134.48C521.484 134.48 520.883 140.335 520.222 141.441C519.561 142.549 516.746 146.087 515.551 146.782C514.351 147.477 516.28 142.119 516.037 141.076C515.794 140.035 515.051 142.979 514.521 143.048C513.995 143.119 514.131 140.467 514.111 139.502C514.091 138.537 516.681 136.158 517.593 134.103C518.505 132.05 521.484 134.48 521.484 134.48Z" fill="#FFB27D"/>
<path d="M503.126 74.4105C503.126 74.4105 498.257 98.3038 471.467 106.11C463.105 108.547 444.107 81.0161 444.107 81.0161C444.107 81.0161 444.777 78.478 448.96 79.0609C448.96 79.0609 467.457 91.3071 469.786 92.6375C471.854 93.818 485.443 77.4632 491.639 74.8251C497.831 72.1867 503.126 74.4105 503.126 74.4105Z" fill="#233862"/>
<path d="M535.109 224.61C535.109 224.61 538.432 227.644 537.782 229.799C537.133 231.954 534.137 233.39 533.73 236.023C533.326 238.659 531.704 240.095 530.246 240.095C528.785 240.095 523.289 240.095 523.289 240.095C523.289 240.095 522.215 238.242 524.809 237.683C527.403 237.124 528.381 234.028 528.217 231.156C528.056 228.283 528.46 224.451 528.46 224.451L533.973 223.174L535.109 224.61Z" fill="#233862"/>
<path d="M494.336 232.454C494.336 232.454 494.932 239.357 493.474 240.075L474.801 240.037C474.801 240.037 474.801 237.883 477.8 237.404C480.799 236.925 486.068 235.169 486.959 231.257C487.851 227.347 494.336 232.454 494.336 232.454Z" fill="#233862"/>
<path d="M478.57 134.956C478.57 134.956 479.555 147.055 480.713 161.598C482.288 181.354 484.179 205.62 484.365 210.218C484.69 218.201 485.989 230.971 485.989 230.971C485.989 230.971 489.065 234.003 495.228 232.725C495.228 232.725 500.72 214.496 502.286 195.21C502.311 194.894 502.336 194.575 502.36 194.258C503.82 174.623 506.089 133.278 506.089 133.278L478.57 134.956Z" fill="#F99746"/>
<path d="M478.57 134.956C478.57 134.956 479.555 147.055 480.713 161.598L502.286 195.21C502.311 194.894 502.336 194.575 502.36 194.258C503.82 174.623 506.089 133.278 506.089 133.278L478.57 134.956Z" fill="#ED7D2B"/>
<path d="M483.068 136.392C483.068 136.392 500.821 180.209 512.492 200.801C524.166 221.393 527.812 227.139 527.812 227.139C527.812 227.139 534.499 224.505 535.107 222.71C535.107 222.71 530.643 182.957 522.825 173.265C518.412 167.79 513.222 151.356 512.978 145.611C512.736 139.863 511.396 128.49 511.396 128.49L483.068 136.392Z" fill="#F99746"/>
<path d="M506.426 68.8653C506.426 68.8653 494.415 74.6605 487.491 72.5102C487.491 72.5102 489.195 70.3602 492.178 68.7604C491.938 67.3706 491.752 66.1643 491.645 65.1416C491.353 62.7813 491.353 61.4439 491.353 61.4439L495.986 57.7992L500.381 54.3113C500.034 64.1189 506.426 68.8653 506.426 68.8653Z" fill="#FFB27D"/>
<path d="M512.753 130.733C512.781 131.47 511.21 132.308 510.515 132.622C505.378 134.878 500.582 136.45 495.152 136.974C488.733 137.631 481.142 136.189 478.532 136.242C478.266 136.242 478.025 136.136 477.811 135.953C477.626 135.821 477.493 128.086 477.626 118.356C477.626 117.965 477.626 117.572 477.654 117.179V117.046C477.706 113.245 477.839 109.259 478.025 105.272C478.399 96.5138 479.094 88.0692 480.263 83.4023C481.674 77.895 484.871 74.2506 487.774 71.6006L490.168 69.5039C492.567 69.9752 495.097 69.8441 497.626 68.6123C500.397 67.2758 503.378 65.8329 503.857 66.1998C507.481 68.8478 509.93 74.8003 511.235 82.4063C511.243 82.4442 511.252 82.4802 511.255 82.5182C511.986 86.8679 512.354 91.7327 512.327 96.8274C512.327 98.7169 512.274 100.656 512.169 102.57C511.634 111.243 511.991 118.963 512.341 124.312C512.41 125.369 512.479 126.334 512.54 127.195C512.648 128.715 512.726 129.896 512.753 130.733Z" fill="#2A4E96"/>
<path d="M512.342 124.311C492.432 101.325 504.783 84.6184 504.783 84.6184L511.257 82.5179C511.987 86.8676 512.356 91.7323 512.328 96.8269C512.328 98.7166 512.275 100.656 512.17 102.57C511.636 111.242 511.993 118.963 512.342 124.311Z" fill="#233862"/>
<path d="M500.46 58.0616C500.46 58.0616 497.423 63.5943 491.645 65.1417C491.351 62.7815 491.351 61.444 491.351 61.444L495.986 57.7994L500.46 58.0616Z" fill="#ED985F"/>
<path d="M489.241 61.2842C489.241 61.2842 500.697 63.1582 501.772 56.1144C502.848 49.0705 505.051 44.5685 497.783 43.0737C490.512 41.5796 488.677 44.0562 487.737 46.3216C486.798 48.5866 486.286 60.6149 489.241 61.2842Z" fill="#FFB27D"/>
<path d="M505.938 42.2305C506.042 42.1112 506.28 42.0153 506.816 41.986C506.816 41.986 506.386 41.7191 505.817 41.7051C505.705 40.9626 505.311 39.6486 504.034 39.3289C504.034 39.3289 504.718 39.6953 504.811 40.4846C503.329 38.9646 500.156 37.8581 491.378 38.5513C479.804 39.4648 483.619 46.8745 485.118 47.7575C486.616 48.6412 490.385 46.2192 493.177 46.441C495.969 46.6625 496.5 50.6961 497.446 51.2496C498.392 51.8032 498.02 50.8244 499.303 50.2452C500.583 49.6662 500.706 51.7892 500.334 53.1695C499.965 54.55 501.726 56.3708 501.726 56.3708C501.726 56.3708 501.726 56.3709 503.506 54.4548C505.284 52.5388 506.961 44.4235 506.151 42.6935C506.08 42.5409 506.012 42.3861 505.938 42.2305Z" fill="#2C3A64"/>
<path d="M503.855 66.1408C503.855 66.1408 511.106 69.5738 514.579 74.8513C519.971 83.0378 526.223 112.872 526.337 115.637C526.454 118.399 521.775 137.904 521.775 137.904C521.775 137.904 517.031 137.59 515.81 135.196C515.81 135.196 516.757 115.156 516.155 113.868C515.556 112.579 496.38 86.9849 498.538 81.5232C500.693 76.0616 503.855 66.1408 503.855 66.1408Z" fill="#2A4E96"/>
<path d="M437.433 111H408.567C406.055 111 404 109.029 404 106.619V105.381C404 102.972 406.055 101 408.567 101H437.433C439.945 101 442 102.972 442 105.381V106.619C442 109.029 439.945 111 437.433 111Z" fill="white"/>
<path d="M257.532 74H227.079C223.079 74 219.805 77.2888 219.805 81.3095V92.8829C219.805 94.7207 220.49 96.4042 221.614 97.6917L219.805 106L230.305 100H257.599C261.599 100 264.805 96.9036 264.805 92.8829V81.3095C264.805 77.2888 261.532 74 257.532 74Z" fill="#D2E3FC"/>
<path d="M255.725 82H226.885C226.291 82 225.805 81.5489 225.805 81C225.805 80.4495 226.291 80 226.885 80H255.725C256.32 80 256.805 80.4495 256.805 81C256.805 81.5489 256.32 82 255.725 82Z" fill="#B7D3F3"/>
<path d="M258.621 87H226.989C226.338 87 225.805 86.5501 225.805 85.9992C225.805 85.4499 226.338 85 226.989 85H258.621C259.273 85 259.805 85.4499 259.805 85.9992C259.805 86.5501 259.273 87 258.621 87Z" fill="#B7D3F3"/>
<path d="M258.621 92H226.989C226.338 92 225.805 91.5501 225.805 91.0008C225.805 90.4499 226.338 90 226.989 90H258.621C259.273 90 259.805 90.4499 259.805 91.0008C259.805 91.5501 259.273 92 258.621 92Z" fill="#B7D3F3"/>
<g clip-path="url(#clip0)">
<path d="M363.042 63.7236C369.204 60.1819 373.133 61.1087 373.133 61.1087L375.602 62.4543C373.843 62.6321 368.757 63.201 365.526 65.0583C359.362 68.6 355.434 74.0423 355.434 74.0423V84.4878C355.434 89.0795 358.761 92.7804 360.599 94.2485C357.27 93.0622 352.95 89.7301 352.95 83.1531V72.7076C352.95 72.7076 356.878 67.2653 363.042 63.7236Z" fill="url(#paint0_linear)"/>
<path d="M355.434 84.4889V74.0428C355.434 74.0428 359.362 68.6005 365.526 65.0588C368.757 63.2015 371.375 62.5737 373.133 62.3959C374.728 62.235 375.617 62.4446 375.617 62.4446V72.8901C375.617 84.8259 365.526 94.9411 365.526 94.9411C365.526 94.9411 361.705 95.5027 358.766 93.154C356.928 91.6859 355.434 89.0807 355.434 84.4889Z" fill="#ECB436"/>
<path d="M357.089 83.5339V74.8014C357.089 74.8014 360.373 70.2519 365.525 67.2912C368.227 65.7385 370.415 65.2137 371.885 65.0651C373.219 64.9305 373.962 65.1058 373.962 65.1058V73.8378C373.962 83.8157 365.525 92.2715 365.525 92.2715C365.525 92.2715 362.332 92.741 359.875 90.7776C358.338 89.5503 357.089 87.3724 357.089 83.5339Z" fill="#F7F7F7"/>
<path d="M355.434 84.4889C355.497 80.6961 355.553 74.9701 355.555 74.0793C357.758 71.1226 362.216 66.787 366.914 64.4287C370.758 62.4836 374.033 62.1472 375.617 62.4452C374.5 62.1947 372.246 62.2404 369.635 63.1C364.276 64.8191 358.734 69.4541 355.327 74.008C355.329 74.8171 355.368 80.5442 355.434 84.4889Z" fill="#FFF1A4"/>
<path d="M356.725 74.1263V83.7471C356.725 87.7429 357.944 90.5344 360.353 92.0637C358.273 90.4767 357.222 87.8042 357.222 84.0931V74.4723L356.725 74.1263Z" fill="#B39A8C"/>
<path d="M357.221 74.4723V84.0931C357.221 87.8042 358.273 90.4767 360.353 92.0637C360.799 92.4043 361.293 92.6951 361.833 92.9347C363.414 93.6375 365.021 93.7048 365.838 93.682L366.023 93.6766L366.208 93.4694C367.045 92.5311 368.689 90.5704 370.299 87.9802C373.301 83.1512 374.824 78.4399 374.824 73.978V64.359L374.597 64.3488C374.508 64.3452 374.418 64.3422 374.327 64.341C373.845 64.335 373.331 64.3662 372.793 64.4365C371.32 64.6269 368.949 65.2072 366.023 66.8891C363.043 68.6017 360.635 70.7943 359.141 72.3327C358.54 72.952 357.97 73.5815 357.449 74.2026L357.221 74.4723ZM358.082 74.5721C358.511 74.0723 358.972 73.5683 359.456 73.0697C360.882 71.6034 363.177 69.5118 366.022 67.8767C368.815 66.2716 371.076 65.7184 372.481 65.5364C372.82 65.4925 373.149 65.4643 373.465 65.4523C373.635 65.4457 373.801 65.4439 373.962 65.4463V74.4723C373.962 78.6424 372.536 83.0509 369.723 87.5759C368.305 89.8568 366.859 91.624 366.022 92.5797C365.205 92.5851 363.794 92.4848 362.403 91.8667C361.891 91.639 361.423 91.3627 361.001 91.0383C359.062 89.5516 358.081 87.0569 358.081 83.5981V74.5721H358.082Z" fill="white"/>
<path d="M361.001 91.0389C361.423 91.3633 361.891 91.639 362.404 91.8672C363.794 92.4854 365.205 92.5857 366.023 92.5803L365.526 92.2343C364.709 92.2397 363.298 92.1394 361.907 91.5218C361.587 91.3789 361.286 91.2185 361.001 91.0389Z" fill="#B39F8C"/>
<path d="M365.526 92.2338L366.022 92.5798C366.859 91.6247 368.305 89.8574 369.723 87.576C372.536 83.0509 373.962 78.6418 373.962 74.4724V65.4469C373.8 65.4445 373.635 65.4463 373.465 65.4529V74.1264C373.465 78.2964 372.039 82.7049 369.226 87.23C367.808 89.5114 366.362 91.2787 365.526 92.2338Z" fill="url(#paint1_linear)"/>
<path d="M356.725 74.1263L357.222 74.4723L357.448 74.2026C357.969 73.5809 358.538 72.952 359.14 72.3327C360.634 70.7943 363.042 68.6017 366.022 66.8892C368.948 65.2072 371.319 64.6275 372.792 64.4365C373.329 64.3668 373.845 64.335 374.326 64.341C374.418 64.3422 374.507 64.3452 374.596 64.3488L374.822 64.359L374.326 64.013L374.099 64.0034C373.542 63.9782 372.935 64.0082 372.295 64.0911C370.821 64.2815 368.451 64.8618 365.525 66.5432C362.544 68.2557 360.137 70.4489 358.642 71.9867C358.04 72.606 357.471 73.2349 356.951 73.8572L356.725 74.1263Z" fill="#F2E7DC"/>
<path d="M364.755 83.917V79.9062L365.622 79.5731L365.555 84.7565L362.61 85.6493C362.628 85.5027 362.653 85.0603 362.61 84.4634C363.26 84.9004 364.311 84.2813 364.755 83.917Z" fill="#C67A00"/>
<path fill-rule="evenodd" clip-rule="evenodd" d="M365.465 87.9046L364.859 87.5103V86.0585L365.465 86.3056V87.9046Z" fill="#C67A00"/>
<path d="M366.244 69.4287L364.858 70.2206V71.5404C364.858 71.5404 362.037 72.9372 360.931 75.1358C360.444 76.1037 360.087 76.8196 360.245 78.9835C360.292 79.6281 360.551 80.1482 361.031 80.5812C361.25 80.7788 361.707 81.0222 361.707 81.0222C361.773 80.3139 361.757 78.6403 361.757 78.6403C361.757 78.6403 362.983 75.5844 363.596 74.0965L366.772 71.2182V69.6926L366.244 69.4287Z" fill="#C67A00"/>
<path fill-rule="evenodd" clip-rule="evenodd" d="M369.676 69.6927C370.103 69.8356 370.565 70.4254 370.565 70.4254L366.714 71.4381L366.245 70.7486C366.245 70.7486 367.62 70.079 368.488 69.7587C368.924 69.5979 369.395 69.5984 369.676 69.6927Z" fill="#C67A00"/>
<path d="M368.34 81.4786C368.094 81.9796 367.123 82.6601 366.667 82.9377L366.721 83.8238L369.226 82.6046L369.712 79.16C369.588 78.9801 369.198 78.5551 368.633 78.2939C368.926 79.6464 368.646 80.8523 368.34 81.4786Z" fill="#C67A00"/>
<path d="M362.357 82.7968L360.089 84.143C360.089 84.143 360.089 85.0708 360.339 86.3546C360.665 87.5278 362.154 87.5278 362.154 87.5278L362.951 83.1782L362.357 82.7968Z" fill="#C67A00"/>
<path d="M368.39 73.8274L369.021 74.0971L369.298 72.8133L368.036 72.3395C368.036 72.3395 368.349 72.7287 368.39 73.0457C368.44 73.4331 368.39 73.8274 368.39 73.8274Z" fill="#C67A00"/>
<path d="M364.806 73.4512V77.6313C364.057 78.2143 363.106 78.2689 363.106 78.2689L363.88 78.6404L365.468 77.8823V73.7817L364.806 73.4512Z" fill="#C67A00"/>
<path fill-rule="evenodd" clip-rule="evenodd" d="M366.772 73.3279V77.0837C367.828 76.5557 368.62 76.1598 369.28 75.9618C369.94 75.7639 370.468 75.8298 370.864 76.1598C371.26 76.4898 371.458 77.2157 371.458 78.3375C371.458 79.4594 371.326 80.4491 370.996 81.241C370.732 82.0329 370.27 82.7589 369.676 83.4188C369.082 84.0787 368.224 84.6726 367.168 85.3326L366.772 85.5965V87.1142L365.453 87.9062V86.3883C364.727 86.7843 364.133 87.1142 363.539 87.3122C363.011 87.5102 362.483 87.5763 362.087 87.5103C361.691 87.4443 361.361 87.1803 361.163 86.7844C360.965 86.3884 360.833 85.7285 360.833 84.9366V84.4087L362.945 83.1548C362.945 83.7488 363.011 84.2106 363.077 84.5406C363.143 84.8046 363.275 85.0026 363.473 85.0026C363.671 85.0686 363.869 85.0026 364.133 84.9366C364.397 84.8046 364.793 84.6066 365.453 84.2767V80.0533C364.595 80.4492 364.001 80.7791 363.473 80.9771C363.011 81.1751 362.549 81.2411 362.153 81.1751C361.757 81.1091 361.427 80.9111 361.229 80.5151C361.031 80.1192 360.899 79.4593 360.899 78.6014C360.899 77.4796 361.097 76.5557 361.493 75.7638C361.889 74.9719 362.351 74.246 363.011 73.7181C363.671 73.1241 364.463 72.5962 365.453 72.0023V70.6825L366.772 69.8906V71.2105C367.828 70.6165 368.686 70.2866 369.28 70.1546C369.874 70.0226 370.336 70.1546 370.666 70.5505C370.996 70.9465 371.128 71.7384 371.128 72.9262L369.016 74.114C369.016 74.048 369.016 73.9821 369.016 73.8501C369.016 73.1242 368.884 72.7943 368.62 72.6623C368.013 72.5104 367.298 73.0593 366.772 73.3279ZM366.772 79.1953V83.4188L367.168 83.1548C367.894 82.7589 368.422 82.2969 368.752 81.769C369.082 81.307 369.28 80.6472 369.28 79.8553C369.28 79.1954 369.214 78.7994 369.016 78.6674C368.818 78.4694 368.554 78.4695 368.29 78.5355C367.894 78.6675 367.432 78.8654 366.772 79.1953ZM365.386 73.9821C364.886 74.2823 364.351 74.5559 363.935 74.9719C363.275 75.4666 363.011 76.3552 363.011 77.1496C363.011 77.9415 363.209 78.3375 363.605 78.4035C364.001 78.4695 364.595 78.2715 365.386 77.8096V73.9821Z" fill="#FAC13C"/>
<path fill-rule="evenodd" clip-rule="evenodd" d="M361.411 71.9039L358.288 70.0543L356.75 70.9769H356.699H356.648H356.597L359.797 72.8799L361.411 71.9039Z" fill="#039460"/>
<path fill-rule="evenodd" clip-rule="evenodd" d="M353.778 72.617L353.624 72.7708L356.75 74.5646L356.892 74.4449L356.904 74.2571V69.4393L357.109 68.7729L353.983 66.9278C353.983 66.9278 353.865 67.1 353.824 67.2248C353.771 67.3815 353.778 67.6454 353.778 67.6454V72.617Z" fill="#039460"/>
<path fill-rule="evenodd" clip-rule="evenodd" d="M356.75 74.5646L353.624 72.7708L352.035 73.6933L355.161 75.4873L356.75 74.5646Z" fill="#00AF68"/>
<path d="M356.34 65.5952C357.499 66.2188 359.539 67.4513 359.539 67.4513L357.365 68.4654L357.109 68.7729L353.983 66.9278C354.2 66.6797 355.455 65.782 356.084 65.544C356.084 65.544 356.16 65.4982 356.34 65.5952Z" fill="#00AF68"/>
<path fill-rule="evenodd" clip-rule="evenodd" d="M355.161 75.4872L352.035 73.6933L355.161 77.2298L358.288 79.075L355.161 75.4872Z" fill="#039460"/>
<path fill-rule="evenodd" clip-rule="evenodd" d="M356.904 69.4392V74.2571C356.904 74.3596 356.802 74.5134 356.75 74.5646L355.162 75.4872L358.288 79.075L361.414 71.8994L359.877 72.822C359.774 72.8733 359.723 72.822 359.723 72.7195V67.9016C359.723 67.6966 359.621 67.4916 359.518 67.4404C359.364 67.3891 359.211 67.3891 359.006 67.4916L357.622 68.2604C357.417 68.3629 357.263 68.5679 357.109 68.7729C357.007 68.9779 356.904 69.2342 356.904 69.4392Z" fill="#00CC83"/>
<path fill-rule="evenodd" clip-rule="evenodd" d="M377.8 87.829L374.678 85.9793L373.14 86.9019H373.089H373.038H372.986L376.187 88.8049L377.8 87.829Z" fill="#039460"/>
<path fill-rule="evenodd" clip-rule="evenodd" d="M370.167 88.542L370.014 88.6958L373.14 90.4897L373.281 90.37L373.294 90.1822V85.3643L373.499 84.698L370.372 82.8528C370.372 82.8528 370.255 83.0251 370.213 83.1499C370.161 83.3066 370.167 83.5705 370.167 83.5705V88.542Z" fill="#039460"/>
<path fill-rule="evenodd" clip-rule="evenodd" d="M373.14 90.4897L370.014 88.6959L368.425 89.6184L371.551 91.4123L373.14 90.4897Z" fill="#00AF68"/>
<path d="M372.73 81.5203C373.889 82.1439 375.929 83.3763 375.929 83.3763L373.755 84.3905L373.499 84.698L370.372 82.8528C370.59 82.6048 371.845 81.707 372.474 81.469C372.474 81.469 372.55 81.4233 372.73 81.5203Z" fill="#00AF68"/>
<path fill-rule="evenodd" clip-rule="evenodd" d="M371.551 91.4123L368.425 89.6183L371.551 93.1549L374.678 95L371.551 91.4123Z" fill="#039460"/>
<path fill-rule="evenodd" clip-rule="evenodd" d="M373.294 85.3643V90.1822C373.294 90.2847 373.191 90.4384 373.14 90.4897L371.551 91.4123L374.678 95L377.804 87.8245L376.267 88.7471C376.164 88.7983 376.113 88.747 376.113 88.6445V83.8267C376.113 83.6217 376.01 83.4167 375.908 83.3654C375.754 83.3141 375.6 83.3141 375.395 83.4166L374.012 84.1855C373.806 84.288 373.653 84.493 373.499 84.698C373.396 84.903 373.294 85.1593 373.294 85.3643Z" fill="#00CC83"/>
<path fill-rule="evenodd" clip-rule="evenodd" d="M378.082 66.6769L375.954 65.4163L374.906 66.045H374.872H374.837H374.802L376.983 67.342L378.082 66.6769Z" fill="#039460"/>
<path fill-rule="evenodd" clip-rule="evenodd" d="M372.88 67.1622L372.775 67.2671L374.906 68.4896L375.002 68.408L375.011 68.28V64.9966L375.15 64.5425L373.02 63.285C373.02 63.285 372.94 63.4023 372.911 63.4874C372.876 63.5942 372.88 63.774 372.88 63.774V67.1622Z" fill="#039460"/>
<path fill-rule="evenodd" clip-rule="evenodd" d="M374.906 68.4902L372.776 67.2676L371.693 67.8964L373.824 69.1189L374.906 68.4902Z" fill="#00AF68"/>
<path d="M374.627 62.3774C375.417 62.8024 376.807 63.6423 376.807 63.6423L375.326 64.3334L375.151 64.543L373.02 63.2855C373.169 63.1165 374.024 62.5046 374.452 62.3424C374.452 62.3424 374.504 62.3112 374.627 62.3774Z" fill="#00AF68"/>
<path fill-rule="evenodd" clip-rule="evenodd" d="M373.824 69.1189L371.693 67.8964L373.824 70.3066L375.954 71.5641L373.824 69.1189Z" fill="#039460"/>
<path fill-rule="evenodd" clip-rule="evenodd" d="M375.011 64.9972V68.2806C375.011 68.3505 374.941 68.4553 374.907 68.4902L373.824 69.119L375.954 71.5641L378.085 66.6738L377.037 67.3026C376.967 67.3375 376.933 67.3026 376.933 67.2327V63.9493C376.933 63.8095 376.863 63.6698 376.793 63.6349C376.688 63.6 376.583 63.5999 376.443 63.6698L375.5 64.1938C375.361 64.2636 375.256 64.4033 375.151 64.5431C375.081 64.6828 375.011 64.8574 375.011 64.9972Z" fill="#00CC83"/>
</g>
<defs>
<linearGradient id="paint0_linear" x1="364.276" y1="60.9993" x2="364.276" y2="94.2485" gradientUnits="userSpaceOnUse">
<stop stop-color="#FAC13C"/>
<stop offset="1" stop-color="#C67A00"/>
</linearGradient>
<linearGradient id="paint1_linear" x1="369.744" y1="92.5799" x2="369.744" y2="65.4458" gradientUnits="userSpaceOnUse">
<stop stop-color="#F2E4DC"/>
<stop offset="1" stop-color="#B3938C"/>
</linearGradient>
<clipPath id="clip0">
<rect width="34" height="34" fill="white" transform="translate(347 61)"/>
</clipPath>
</defs>
</svg>
