<svg width="60" height="60" viewBox="0 0 60 60" fill="none" xmlns="http://www.w3.org/2000/svg">
<rect width="60" height="60" rx="8" fill="#EBF2FF"/>
<path fill-rule="evenodd" clip-rule="evenodd" d="M35.1493 20.5916C35.7016 20.5916 36.1493 21.0393 36.1493 21.5916L36.1495 33.5737L38.5434 33.5736C38.9595 33.5736 39.1935 34.0522 38.9381 34.3806L35.1775 39.2157C34.9773 39.473 34.5883 39.473 34.3882 39.2157L30.6276 34.3807C30.3722 34.0522 30.6062 33.5737 31.0223 33.5737L33.4162 33.5737L33.4164 21.5916C33.4164 21.0393 33.8641 20.5916 34.4164 20.5916L35.1493 20.5916ZM25.5834 20.5916C26.1357 20.5916 26.5834 21.0393 26.5834 21.5916L26.5836 28.1076L28.9775 28.1075C29.3936 28.1075 29.6276 28.586 29.3722 28.9145L25.6116 33.7495C25.4114 34.0069 25.0224 34.0069 24.8223 33.7495L21.0617 28.9145C20.8063 28.5861 21.0403 28.1075 21.4564 28.1075L23.8503 28.1075L23.8505 21.5916C23.8505 21.0393 24.2982 20.5916 24.8505 20.5916L25.5834 20.5916Z" fill="#2680EB"/>
</svg>
