<svg width="60" height="60" viewBox="0 0 60 60" fill="none" xmlns="http://www.w3.org/2000/svg">
<rect width="60" height="60" rx="8" fill="#EBF2FF"/>
<path d="M33.9999 21C31.789 21 29.9999 22.7891 29.9999 25C29.9999 27.2109 31.789 29 33.9999 29C36.2109 29 37.9999 27.2109 37.9999 25C37.9999 22.7891 36.2109 21 33.9999 21Z" fill="#2680EB"/>
<path d="M21.9999 31H19.9999C19.4477 31 18.9999 31.4477 18.9999 32V35C18.9999 35.5523 19.4477 36 19.9999 36H22.9999L31.1562 38.8555C31.8085 39.082 32.5273 39.0273 33.1367 38.7031L39.268 35.4217C39.9388 35.0627 40.2112 34.2413 39.8877 33.5526C39.554 32.8421 38.7101 32.5333 37.9967 32.8606L32.082 35.5742L31.7148 35.082L32.0038 34.4258C32.4609 33.4141 31.9999 32.2227 30.9804 31.7773C29.0288 30.9243 28.0649 30.0237 25.9999 30C24.3899 29.9816 21.9999 31 21.9999 31Z" fill="#2680EB"/>
</svg>
